<svg data-v-6805eed4="" version="1.0" xmlns="http://www.w3.org/2000/svg" xmlns:xlink="http://www.w3.org/1999/xlink" width="100%" height="100%" viewBox="0 0 340.000000 250.000000" preserveAspectRatio="xMidYMid meet" color-interpolation-filters="sRGB" style="margin: auto;"> <rect data-v-6805eed4="" x="0" y="0" width="100%" height="100%" fill="#e3dbcb" fill-opacity="1" class="background"></rect> <rect data-v-6805eed4="" x="0" y="0" width="100%" height="100%" fill="url(#watermark)" fill-opacity="1" class="watermarklayer"></rect> <g data-v-6805eed4="" fill="#9f704f" class="icon-text-wrapper icon-svg-group iconsvg" transform="translate(48.88499450683594,97.07375144958496)"><g class="iconsvg-imagesvg" transform="translate(0,8.774419784545898)"><g><rect fill="#9f704f" fill-opacity="0" stroke-width="2" x="0" y="0" width="60" height="38.30365863779422" class="image-rect"></rect> <svg filter="url(#colors5079950543)" x="0" y="0" width="60" height="38.30365863779422" filtersec="colorsf5529422148" class="image-svg-svg primary" style="overflow: visible;"><svg xmlns="http://www.w3.org/2000/svg" viewBox="0 0 93.6 61.2"><path d="M75.7 30.6c0 3.5-2.8 6.3-6.3 6.3-5 0-10.3-6.3-10.3-6.3m16.6 0c0-3.5-2.8-6.3-6.3-6.3-5 0-10.3 6.3-10.3 6.3m-24.6 0s-5.2-6.3-10.3-6.3c-3.5 0-6.3 2.8-6.3 6.3m0 0c0 3.5 2.8 6.3 6.3 6.3 5 0 10.3-6.3 10.3-6.3m24.6 0L30.6 2 2 30.6l28.6 28.6 28.5-28.6zm32.5 0L63 2 34.5 30.6 63 59.1l28.6-28.5z" fill="none" stroke="#333" stroke-width="4" stroke-linejoin="round" stroke-miterlimit="10"></path></svg></svg> <defs><filter id="colors5079950543"><feColorMatrix type="matrix" values="0 0 0 0 0.62109375  0 0 0 0 0.4375  0 0 0 0 0.30859375  0 0 0 1 0" class="icon-fecolormatrix"></feColorMatrix></filter> <filter id="colorsf5529422148"><feColorMatrix type="matrix" values="0 0 0 0 0.99609375  0 0 0 0 0.99609375  0 0 0 0 0.99609375  0 0 0 1 0" class="icon-fecolormatrix"></feColorMatrix></filter> <filter id="colorsb4226090180"><feColorMatrix type="matrix" values="0 0 0 0 0  0 0 0 0 0  0 0 0 0 0  0 0 0 1 0" class="icon-fecolormatrix"></feColorMatrix></filter></defs></g></g> <g transform="translate(67,0)"><g data-gra="path-name" fill-rule="" class="tp-name iconsvg-namesvg" transform="translate(0,0)"><g transform="scale(1)"><g><path d="M42.66-18L42.66-15.07 23.98-15.07 23.98 3.69 21.06 3.69 21.06-15.07 2.43-15.07 2.43-18 21.06-18 21.06-33.12 3.19-32.85 3.15-35.82 42.21-36.41 42.25-33.48 23.98-33.16 23.98-18 42.66-18ZM86.67 3.92L86.67 3.92 69.53-2.97 48.15 3.96 47.2 1.13 65.25-4.68 49.27-11.12 50.4-13.86 69.66-6.08 82.98-10.39 82.98-14.17 48.51-14.17 48.51-17.1 84.47-17.1Q85.09-17.1 85.5-16.67 85.91-16.25 85.91-15.62L85.91-15.62 85.91-9.31Q85.91-8.82 85.63-8.44 85.37-8.05 84.91-7.92L84.91-7.92 73.94-4.37 87.75 1.17 86.67 3.92ZM77-30.73L77-18.45 74.03-18.45 74.03-30.73 60.98-30.73 60.98-18.45 58-18.45 58-30.73 47.34-30.73 47.34-33.66 65.7-33.66 65.2-35.95 68.13-36.54 68.72-33.66 87.66-33.66 87.66-30.73 77-30.73ZM55.75-28.39L50.22-18.36 47.66-19.8 53.19-29.83 55.75-28.39ZM87.34-19.8L84.78-18.36 79.2-28.39 81.81-29.83 87.34-19.8ZM129.6 3.87L129.6 3.87 112.86 3.87 112.86 0.94 128.12 0.94 128.12-22.36 99.31-22.36 95 4.05 92.07 3.55 98.01-32.4 92.3-32.4 92.3-35.37 132.66-35.37 132.66-32.4 100.98-32.4 99.81-25.29 129.6-25.29Q130.23-25.29 130.66-24.88 131.09-24.48 131.09-23.85L131.09-23.85 131.09 2.43Q131.09 3.06 130.66 3.46 130.23 3.87 129.6 3.87L129.6 3.87ZM147.91-4.68L147.91-4.68 145.89-6.88 160.2-20.16 160.2-36.27 163.17-36.27 163.17-22.9 173.97-32.94 176-30.78 163.17-18.86 163.17 0.99 177.66 0.99 177.66 3.92 161.69 3.92Q161.06 3.92 160.63 3.49 160.2 3.06 160.2 2.43L160.2 2.43 160.2-16.11 147.91-4.68ZM141.62 3.92L141.62 3.92 138.65 3.92 138.65-25.96Q138.65-26.32 138.82-26.64L138.82-26.64 143.82-36.85 146.47-35.55 141.62-25.65 141.62 3.92Z" transform="translate(-2.430000066757202, 36.849998474121094)"></path></g> <!----> <!----> <!----> <!----> <!----> <!----> <!----></g></g> <g data-gra="path-slogan" fill-rule="" class="tp-slogan iconsvg-slogansvg" fill="#23334b" transform="translate(36.590003967285156,46.89999771118164)"><!----> <!----> <g transform="scale(1, 1)"><g transform="scale(1)"><path d="M2.20-1.03L7.36-1.03L7.36 0L1.03 0L1.03-8.58L7.27-8.58L7.27-7.59L2.20-7.59L2.20-4.92L6.89-4.92L6.89-3.89L2.20-3.89L2.20-1.03ZM9.52-8.58L11.95-1.27L14.44-8.58L15.75-8.58L12.61 0L11.34 0L8.20-8.58L9.52-8.58ZM18.14-1.03L23.30-1.03L23.30 0L16.97 0L16.97-8.58L23.20-8.58L23.20-7.59L18.14-7.59L18.14-4.92L22.83-4.92L22.83-3.89L18.14-3.89L18.14-1.03ZM28.92-3.70L26.11-3.70L26.11 0L24.94 0L24.94-8.58L28.92-8.58Q31.78-8.58 31.78-6.28L31.78-6.28Q31.78-4.88 30.56-4.22L30.56-4.22Q31.59-3.94 31.59-2.58L31.59-2.58L31.69-1.03Q31.64-0.38 32.11-0.19L32.11-0.19L32.11 0L30.66 0Q30.52-0.61 30.47-2.16L30.47-2.16Q30.52-3.70 28.92-3.70L28.92-3.70ZM29.02-7.64L26.11-7.64L26.11-4.69L28.83-4.69Q30.56-4.69 30.56-6.19L30.56-6.19Q30.56-7.64 29.02-7.64L29.02-7.64ZM39.05-3.47L39.05-2.58L33-2.58L33-3.47L39.05-3.47ZM47.58-6.05L47.58-6.05L46.45-6.05Q46.03-7.78 44.06-7.83L44.06-7.83Q41.34-7.69 41.25-4.36L41.25-4.36Q41.25-0.80 44.11-0.80L44.11-0.80Q46.08-0.84 46.55-3.19L46.55-3.19L47.67-3.19Q47.16 0.05 43.88 0.14L43.88 0.14Q40.13 0 40.03-4.31L40.03-4.31Q40.22-8.63 44.06-8.81L44.06-8.81Q47.11-8.72 47.58-6.05ZM50.20-5.06L54.70-5.06L54.70-8.58L55.88-8.58L55.88 0L54.70 0L54.70-3.98L50.20-3.98L50.20 0L49.03 0L49.03-8.58L50.20-8.58L50.20-5.06ZM63.33 0L62.48-2.48L59.02-2.48L58.13 0L56.95 0L60.19-8.58L61.50-8.58L64.59 0L63.33 0ZM60.75-7.31L59.39-3.52L62.06-3.52L60.80-7.31L60.75-7.31ZM67.03-8.58L71.34-1.64L71.34-8.58L72.47-8.58L72.47 0L71.16 0L66.80-6.94L66.75-6.94L66.75 0L65.63 0L65.63-8.58L67.03-8.58ZM80.67-3.61L78.05-3.61L78.05-4.59L81.80-4.59L81.80 0L81.05 0L80.77-1.08Q79.78 0.09 77.95 0.14L77.95 0.14Q76.22 0.14 75.28-0.75L75.28-0.75Q73.88-2.06 73.92-4.36L73.92-4.36Q74.25-8.63 78-8.81L78-8.81Q81.19-8.63 81.66-6L81.66-6L80.53-6Q80.06-7.78 77.95-7.83L77.95-7.83Q75.28-7.64 75.14-4.31L75.14-4.31Q75.14-0.75 78-0.75L78-0.75Q79.03-0.75 79.78-1.31L79.78-1.31Q80.72-2.06 80.67-3.61L80.67-3.61ZM83.77-8.58L84.94-8.58L84.94 0L83.77 0L83.77-8.58ZM88.31-8.58L92.63-1.64L92.63-8.58L93.75-8.58L93.75 0L92.44 0L88.08-6.94L88.03-6.94L88.03 0L86.91 0L86.91-8.58L88.31-8.58ZM101.95-3.61L99.33-3.61L99.33-4.59L103.08-4.59L103.08 0L102.33 0L102.05-1.08Q101.06 0.09 99.23 0.14L99.23 0.14Q97.50 0.14 96.56-0.75L96.56-0.75Q95.16-2.06 95.20-4.36L95.20-4.36Q95.53-8.63 99.28-8.81L99.28-8.81Q102.47-8.63 102.94-6L102.94-6L101.81-6Q101.34-7.78 99.23-7.83L99.23-7.83Q96.56-7.64 96.42-4.31L96.42-4.31Q96.42-0.75 99.28-0.75L99.28-0.75Q100.31-0.75 101.06-1.31L101.06-1.31Q102-2.06 101.95-3.61L101.95-3.61Z" transform="translate(-1.03125, 8.8125)"></path></g></g></g></g></g><defs v-gra="od"></defs></svg>