<svg data-v-6805eed4="" version="1.0" xmlns="http://www.w3.org/2000/svg" xmlns:xlink="http://www.w3.org/1999/xlink" width="100%" height="100%" viewBox="0 0 340.000000 250.000000" preserveAspectRatio="xMidYMid meet" color-interpolation-filters="sRGB" style="margin: auto;"> <rect data-v-6805eed4="" x="0" y="0" width="100%" height="100%" fill="#000000" fill-opacity="1" class="background"></rect> <rect data-v-6805eed4="" x="0" y="0" width="100%" height="100%" fill="url(#watermark)" fill-opacity="1" class="watermarklayer"></rect> <g data-v-6805eed4="" fill="#dbdbdb" class="basesvg" transform="translate(81.83291625976562,85.74379348754883)"><g data-gra="path-name" fill-rule="evenodd" stroke="#dbdbdb" class="tp-name" transform="translate(0,0)"><g transform="scale(1.2400000000000002)"><g><path d="M102.2 35.4L102.2 35.2 102.3 34.6A0.7 0.7 0 0 0 102.1 34 1 1 0 0 1 101.8 33.3Q102 32.7 101.8 32.3 101.7 32.2 101.7 31.8A0.8 0.8 0 0 0 101.3 31.3Q101.1 31.2 100.8 30.9A2 2 0 0 0 100.2 30.5 3.9 3.9 0 0 0 99.2 30.2L94.8 29.3A48.8 48.8 0 0 0 92.3 28.9Q92 28.9 92 28.8L92.5 26.4Q92.5 26.2 92.7 26.2L93.9 26.4Q94.1 26.4 94.4 26.3 94.7 26.3 95 26.4A14.1 14.1 0 0 1 96.3 26.6L97.5 26.8A5.7 5.7 0 0 0 98.5 26.9 1.6 1.6 0 0 0 99.3 26.6Q99.3 26.5 99.5 26.6A15.2 15.2 0 0 0 100.6 26.9 0.2 0.2 0 0 0 100.6 26.9 0.2 0.2 0 0 0 100.8 26.8 1.6 1.6 0 0 1 102 26.1L102.2 26.1A0.7 0.7 0 0 0 102.6 26.4Q102.9 26.4 103.2 26.2A1.1 1.1 0 0 0 103.6 25.5L103.7 24.8A2.9 2.9 0 0 1 104.1 23.9 2 2 0 0 1 104.3 23.5 3.9 3.9 0 0 0 104.5 23.1 9.2 9.2 0 0 1 104.7 22.9 2.5 2.5 0 0 0 104.9 22.4 2.6 2.6 0 0 0 104.9 22.2 1 1 0 0 1 104.9 22.1 1 1 0 0 1 105 21.9 4.4 4.4 0 0 1 105.3 20.8 2.9 2.9 0 0 0 105.5 20.3 2.9 2.9 0 0 1 105.6 19.7 2.9 2.9 0 0 0 106 18.8 3.3 3.3 0 0 0 106 17.8Q106.1 17.6 106 17.2L106.1 16.1 106.1 15.8A0.6 0.6 0 0 1 106.3 15.5 0.3 0.3 0 0 0 106.5 15.3 0.2 0.2 0 0 0 106.3 15.1Q106.3 15 106.2 14.9A0.1 0.1 0 0 1 106.1 14.8Q106.1 14.3 105.4 14.1 103.6 13.5 101.7 13.1A22.1 22.1 0 0 0 100.1 12.8L99.1 12.7Q98.4 12.6 97.1 12.4 95.9 12.2 95.3 12.2A249.1 249.1 0 0 0 91.2 11.8L89.3 11.8A10.3 10.3 0 0 0 88.3 11.8 31.6 31.6 0 0 1 86.7 11.8L85.7 11.7A15.2 15.2 0 0 0 84.4 11.6 17.9 17.9 0 0 0 81.3 11.7 1.4 1.4 0 0 1 80.9 11.7 0.9 0.9 0 0 1 80.1 10.9 1 1 0 0 0 79.8 10.4 0.9 0.9 0 0 0 79.4 10.1 0.3 0.3 0 0 0 79.3 10.1Q78.5 10.2 78 10.1A0.9 0.9 0 0 1 77.8 10.2Q77.7 10.2 77.7 10.3 77.4 10.8 77 11.8 76.8 12.4 76.6 12.8 76.5 13.2 76.3 13.9 76.1 14.9 75.6 16.6L75.5 17.1A5.2 5.2 0 0 1 75.5 17.6Q75.4 17.9 75.4 18.2A35.6 35.6 0 0 0 74.7 20.5 0.9 0.9 0 0 0 75 21.4Q75.4 21.9 75.4 22.2A0.3 0.3 0 0 0 75.5 22.5 0.4 0.4 0 0 1 75.6 22.9Q75.6 23.2 75.5 23.3L75.5 23.4A0.7 0.7 0 0 0 76 24.1 1.3 1.3 0 0 1 76.3 24.5Q76.4 24.6 76.5 24.9A0.8 0.8 0 0 0 76.8 25.3 1.4 1.4 0 0 0 77.2 25.5Q77.6 25.6 77.7 25.3A0.5 0.5 0 0 1 78.1 25 1.4 1.4 0 0 1 78.3 25 0.4 0.4 0 0 1 78.6 24.9 6.1 6.1 0 0 0 79.4 24.9 7.2 7.2 0 0 1 80.1 24.8 10.1 10.1 0 0 1 81.4 24.9L82.7 24.9Q83 24.9 83.5 25 84 25.1 84.3 25.1 84.6 25.2 84.7 25.3A2.5 2.5 0 0 1 85.2 25.4 2.3 2.3 0 0 0 85.6 25.5 0.2 0.2 0 0 1 85.8 25.7 0.3 0.3 0 0 1 85.8 25.8Q85.7 26.2 85.5 26.7A12.6 12.6 0 0 0 85.1 27.9Q85 28.2 84.7 28.2L83.1 28.3A38.2 38.2 0 0 0 80.8 28.1L78.7 28 77 28A0.1 0.1 0 0 0 76.9 28 1 1 0 0 0 76.5 28.6 0.9 0.9 0 0 0 76.5 28.9 0.5 0.5 0 0 1 76.5 29.1 2.7 2.7 0 0 1 76.1 30Q75.8 30.5 75.7 30.7A7.6 7.6 0 0 0 75.5 31.3 5 5 0 0 1 75.1 32.1L73.9 34.8Q73.1 36.8 72.8 37.5L72.8 37.6A3.4 3.4 0 0 0 72.7 38.4 13.3 13.3 0 0 1 72.7 39.1Q72.8 39.3 72.8 39.3A0.7 0.7 0 0 1 73.2 40 0.4 0.4 0 0 0 73.2 40.2 0.3 0.3 0 0 0 73.3 40.3 0.2 0.2 0 0 0 73.3 40.4 0 0 0 0 0 73.4 40.3L74.2 39.9 74.5 39.7Q74.8 39.4 74.8 39.4 74.9 39.2 74.9 38.9A2.1 2.1 0 0 1 75.1 38.4 62 62 0 0 1 76.1 35.9L77.4 32.7A11.8 11.8 0 0 1 78.1 31.1 0.2 0.2 0 0 0 78.2 31.1 0.8 0.8 0 0 0 78.5 31.3 0.7 0.7 0 0 0 79 31.1L79.3 31.1A10.4 10.4 0 0 0 80 31.1 15.8 15.8 0 0 1 80.7 31.1Q80.9 31.1 81.2 31.1 81.5 31.2 81.7 31.2 83.6 31.2 84 31.2L84 31.4A12.6 12.6 0 0 1 83.8 32.2Q83.7 32.8 83.5 33.1L83.5 33.4A1 1 0 0 0 83.7 34.1Q83.8 34.3 83.8 34.5A0.9 0.9 0 0 0 84 34.8L81.9 34.8Q81.7 34.8 81.7 34.7 81.6 34.7 81.5 34.6A1 1 0 0 0 80.9 34.1Q80.6 34.1 80.2 34.3L79.8 34.8Q79.5 35 79.4 35.5A1.7 1.7 0 0 0 79.4 36.1Q79.5 36.2 79.5 36.3A0.8 0.8 0 0 0 79.6 36.6 0.5 0.5 0 0 0 79.8 37 0.6 0.6 0 0 0 80.1 37.1 0.9 0.9 0 0 0 80.2 37.1Q81.7 37 82.1 37A4.4 4.4 0 0 1 83.4 37.1L86.2 37.5Q86.4 37.5 86.6 37.5A1.2 1.2 0 0 1 86.9 37.5 5.4 5.4 0 0 0 87.7 37.8 3.8 3.8 0 0 0 88.4 37.8 1.7 1.7 0 0 0 89.9 37.2 0.3 0.3 0 0 1 90.1 37.1 50.5 50.5 0 0 0 92.4 36.8Q92.4 36.8 92.5 36.7 92.6 36.6 92.6 36.6 92.6 36.5 92.5 36.4 92.5 36.3 92.4 36.3A1.1 1.1 0 0 1 92.1 36 0.3 0.3 0 0 1 92 35.8 0.8 0.8 0 0 1 92 35.7Q92 35.7 91.8 35.6A1.7 1.7 0 0 0 91.4 35.7 0.3 0.3 0 0 1 91.3 35.7 0.1 0.1 0 0 1 91.2 35.6Q91.1 35.5 91.1 35.4A4 4 0 0 0 91.2 34.7Q91.2 34.3 91.3 33.9 91.3 33.4 91.5 32.3A0.2 0.2 0 0 1 91.5 32.2 0.2 0.2 0 0 1 91.8 32.1L93.7 32.2A1.4 1.4 0 0 0 94.1 32.3 6.4 6.4 0 0 1 96 32.4 0.5 0.5 0 0 1 96.3 32.7 4.5 4.5 0 0 0 96.5 33.3Q96.6 33.6 96.6 34.1L96.7 35.8 96.6 37.5 96.6 37.7A14.2 14.2 0 0 1 96.6 38.8Q96.6 39.2 96.6 39.7A5.2 5.2 0 0 1 96.6 40.2Q96.6 40.6 96.6 40.8 96.6 41.2 96.8 41.6A5.3 5.3 0 0 0 97.3 42.4 0.6 0.6 0 0 0 97.6 42.7 0.4 0.4 0 0 0 97.8 42.6L98 42.7 98.2 42.7A0.3 0.3 0 0 0 98.4 42.5L98.7 42.2A2.5 2.5 0 0 1 99.1 42.6 0.7 0.7 0 0 0 99.5 42.8 0.5 0.5 0 0 0 99.7 42.8 0.1 0.1 0 0 0 99.7 42.9Q100.3 43.3 100.4 43.4A0.4 0.4 0 0 0 100.5 43.5 0.3 0.3 0 0 0 100.8 43.4Q100.9 43.2 101.1 42.9 101.2 42.6 101.3 42.3A33.3 33.3 0 0 0 101.7 40.4 6.1 6.1 0 0 0 101.9 39.1Q101.8 38.8 102 38.2A3.7 3.7 0 0 0 102.1 37.2 4 4 0 0 1 102.1 36.6 4 4 0 0 0 102.2 35.9Q102.2 35.8 102.2 35.7A1.7 1.7 0 0 0 102.2 35.4ZM11.6 40.6L12.1 40.1A18.3 18.3 0 0 1 13.3 39.1 4 4 0 0 1 13.9 38.8 4.3 4.3 0 0 0 14.4 38.5 0.2 0.2 0 0 1 14.8 38.6L15.3 39.5Q15.6 40 16.4 41.2L17.9 43.4Q18.6 44.3 19.9 46.2 20.8 47.6 21.4 48.3A7.4 7.4 0 0 0 22.5 49.6L22.6 49.5A0.6 0.6 0 0 0 22.7 49.3 0.1 0.1 0 0 1 22.8 49.3 0.1 0.1 0 0 1 22.8 49.3Q22.8 49.2 23 49.3 23.1 49.3 23.1 49.3L23 49 23.4 49.2A0.8 0.8 0 0 1 23.5 49.2 0.2 0.2 0 0 1 23.8 49.2Q23.9 49.5 24.3 49.5A0.5 0.5 0 0 1 24.6 49.7Q24.8 49.8 24.9 49.9A0.5 0.5 0 0 0 25.3 49.8Q25.3 49.8 25.4 49.6A0.3 0.3 0 0 1 25.5 49.6 0.3 0.3 0 0 1 25.7 49.6 0.3 0.3 0 0 0 25.9 49.5 0.2 0.2 0 0 0 25.9 49.3Q25.9 49.2 25.8 49A0.6 0.6 0 0 1 25.8 48.7Q25.8 48.6 25.8 48.5A0.3 0.3 0 0 1 25.9 48.2L25.9 48.2 25.9 48.1 25.7 47.2A0.3 0.3 0 0 0 25.6 47.1 0.2 0.2 0 0 0 25.6 47.1 0.7 0.7 0 0 1 25.5 46.9 2.5 2.5 0 0 0 25.3 46.4 6.8 6.8 0 0 1 24.9 45.7L24.2 44.5 23.7 43.7 23.1 42.8Q22.9 42.5 22.4 41.9L21.8 41A16.8 16.8 0 0 0 20.3 38.9 33.6 33.6 0 0 1 19.1 37.3 9.5 9.5 0 0 1 18.5 36.4L18.5 36.3A0.3 0.3 0 0 1 18.5 35.8 0.9 0.9 0 0 1 18.7 35.7L19.1 35.4 19.9 34.9 20.6 34.5A5.4 5.4 0 0 1 21.2 34L23.3 32.7A24 24 0 0 0 24 32.2Q24.5 31.9 25.2 31.6L27.1 30.6Q28.4 29.8 28.9 29.4A3.6 3.6 0 0 0 29.4 29 3.3 3.3 0 0 1 29.9 28.7 2.3 2.3 0 0 0 30.4 28.1 0.9 0.9 0 0 1 30.7 27.7Q30.9 27.6 31 27.2 31 26.9 31.3 26.8A0.6 0.6 0 0 0 31.6 26.1Q31.7 26 31.7 25.9L31.9 26 31.9 25.7Q32.1 25.3 32.1 25.2A2.6 2.6 0 0 0 32.2 24.9 1.6 1.6 0 0 1 32.3 24.5 1.3 1.3 0 0 0 32.3 24.3 0.2 0.2 0 0 1 32.4 24.1 0 0 0 0 0 32.4 24.1L32.4 24 32.4 24A0.2 0.2 0 0 1 32.4 23.8 0.9 0.9 0 0 0 32.5 23.6 0.3 0.3 0 0 1 32.6 23.4 0.4 0.4 0 0 1 32.8 23.3 6.9 6.9 0 0 0 32.7 22.5L32.7 22.4Q33 22.1 32.7 21.6 32.7 21.3 32.7 21.2 32.6 21.1 32.4 21.1A0.4 0.4 0 0 1 32.1 20.9 0.4 0.4 0 0 1 32.1 20.6L32.1 20.6 32 20.5A0.5 0.5 0 0 1 32 20.1 4.2 4.2 0 0 0 32.2 19.3 0.7 0.7 0 0 0 32.3 19 1 1 0 0 1 32.3 18.7L32.3 18.7 32.2 18.7A5.3 5.3 0 0 1 31.4 19.6Q31.4 19.7 31.2 19.9 31 20.1 30.8 20.2 30.4 20.4 29.8 20.7A10.4 10.4 0 0 0 29 21.1 14.9 14.9 0 0 0 27.8 21.8 24.1 24.1 0 0 0 25.4 23.5Q24.5 24.3 24 24.6L23.2 25.4Q22.6 25.7 22.3 25.9A34.1 34.1 0 0 0 20.8 27.1 33.6 33.6 0 0 0 19.1 28.4L18.1 29.1 15.3 31A0.3 0.3 0 0 1 15 31 0.6 0.6 0 0 1 14.8 30.8Q14.4 30.2 14.2 29.8A4.6 4.6 0 0 0 12.8 28.5L12.2 28 11.9 27.8Q11.7 27.8 11.5 27.7A1.4 1.4 0 0 0 11.2 27.6L11 27.5 9.8 27.3 9.5 27.3A0.6 0.6 0 0 0 9.3 27.4 0.1 0.1 0 0 0 9.3 27.4 0.5 0.5 0 0 0 9.3 27.7L9.4 27.9 9.6 28.7A15.4 15.4 0 0 0 10.1 29.9 30.5 30.5 0 0 0 10.7 31.7 39.7 39.7 0 0 0 11.6 33.5 0.2 0.2 0 0 1 11.6 33.9L10.8 34.4 9.3 35.5A65 65 0 0 1 7 37L4.6 38.6Q3.9 39.1 3.4 38.9 3.2 38.9 3 38.9 2.8 39 2.7 39 2.4 39 2.3 39.1 2.1 39.1 2 39.1L1.3 39.3A0.1 0.1 0 0 0 1.2 39.3 0.1 0.1 0 0 0 1.2 39.4 0.4 0.4 0 0 1 1.1 39.4Q1.1 39.6 1 39.6L0.2 40.3Q0 40.6 0 40.9L0.1 41Q0.2 41.2 0.5 41.4A0.4 0.4 0 0 1 0.6 41.5Q0.6 41.6 0.6 41.6A0.7 0.7 0 0 0 0.7 42.1 1.4 1.4 0 0 0 1 42.4L1.2 42.6Q1.3 42.7 1.3 43A0.9 0.9 0 0 0 1.4 43.4 0.5 0.5 0 0 0 1.4 43.5 0.4 0.4 0 0 1 1.6 43.7 0.4 0.4 0 0 1 1.7 43.7 1.9 1.9 0 0 0 1.8 43.9 0.3 0.3 0 0 1 1.8 44.1 0.6 0.6 0 0 1 1.9 44.4 1.5 1.5 0 0 0 2 44.7 0.3 0.3 0 0 0 2.1 44.8 1 1 0 0 0 2.3 45Q2.4 45.1 2.5 45.2 2.6 45.3 2.7 45.4 2.9 45.4 2.9 45.4A1.3 1.3 0 0 0 3.8 45.6L4.1 45.6A0.8 0.8 0 0 0 4.7 45.5 1 1 0 0 0 4.9 45.4 0.7 0.7 0 0 0 5.1 45.3 0.4 0.4 0 0 1 5.1 45.2 0.2 0.2 0 0 1 5.2 45.1Q5.3 45.1 5.5 45 5.7 44.9 6 44.5A3.9 3.9 0 0 1 6.9 43.7 1.9 1.9 0 0 1 7 43.6L7.5 43.4 8.3 42.6A2.7 2.7 0 0 1 8.6 42.4 1.6 1.6 0 0 1 8.7 42.3 4.1 4.1 0 0 0 9.1 42.1 1.4 1.4 0 0 0 9.4 41.9L9.5 41.9 9.7 41.8A0.9 0.9 0 0 1 10 41.7Q10.2 41.6 10.4 41.5A1.8 1.8 0 0 0 10.7 41.3Q11.1 41.1 11.2 40.7A1.4 1.4 0 0 0 11.6 40.6ZM50.4 22.5L50.3 22.4 50.3 22.2A0.3 0.3 0 0 1 50.4 21.9L50.4 21.9 50.1 20.9 49.9 19.7Q49.8 19.2 49.6 18.4 49.5 17.9 49.3 16.8A25 25 0 0 0 48.9 15.1L48.7 13.9 48.5 12.8 48.2 11.9A0.2 0.2 0 0 1 48.3 11.6 0.3 0.3 0 0 1 48.4 11.6 0.1 0.1 0 0 0 48.5 11.6 0 0 0 0 0 48.5 11.6 0.1 0.1 0 0 1 48.6 11.6 1.4 1.4 0 0 1 48.9 11.5 7.4 7.4 0 0 1 49.8 11.4L50.2 11.3A12.3 12.3 0 0 1 51.7 11.2 0.3 0.3 0 0 1 52 11.5 19.7 19.7 0 0 1 52.3 13L52.8 15.3 53 16.5 53.2 17Q53.2 17.2 53.4 17.6A14 14 0 0 0 53.6 18.2 4.3 4.3 0 0 0 53.9 18.9 0.2 0.2 0 0 1 53.9 19Q53.6 19.3 53.4 19.4A0.2 0.2 0 0 0 53.3 19.5 0.3 0.3 0 0 0 53.4 19.6 0.3 0.3 0 0 1 53.6 19.8Q53.7 20 54 19.9 54.2 19.9 54.4 19.8 54.7 19.7 54.8 19.6A0.2 0.2 0 0 1 54.9 19.6 0.6 0.6 0 0 1 55.2 19.7Q55.3 19.7 55.4 19.7 55.6 19.7 55.7 19.5 55.7 19.1 55.8 19 56 18.8 56 18.5A14.3 14.3 0 0 0 56 17.3Q56.1 16.8 56 16.2L55.6 14.2 55.6 13.7 55.3 12.1 55 11.1A0.2 0.2 0 0 1 55.2 10.8 2.2 2.2 0 0 0 55.7 10.6 3.5 3.5 0 0 0 56 10.5Q55.8 10.4 55.8 10.3L56 10.2 56.2 10A0.2 0.2 0 0 1 56.3 9.9 0.4 0.4 0 0 1 56.6 10Q56.6 10.2 56.6 10.3A1.3 1.3 0 0 0 56.8 10.3 0.3 0.3 0 0 0 56.9 10.3Q57 10.2 57.1 10 57.2 10.1 57.5 10.1A2.7 2.7 0 0 0 58.1 10.1Q58.6 10 58.6 9.9L58.6 9.7 58.6 9.8 58.6 9.8Q58.8 9.6 59.1 9.2L59.2 9 59.7 8.8 60.4 8.6 60.8 8.4Q61.2 8.3 61.4 8.1A1.4 1.4 0 0 0 61.7 7.9 1.4 1.4 0 0 1 61.9 7.8Q62.1 7.7 62.2 7.6 62.2 7.4 62.6 7 62.7 6.8 62.8 6.7A0.5 0.5 0 0 0 63 6.3 0.5 0.5 0 0 0 63 6.2 0.5 0.5 0 0 0 62.9 6L62.9 5.8 63.4 5.4A11 11 0 0 1 63.9 5.1Q64.1 4.9 64.2 4.9 64.2 4.8 64.2 4.6A0.2 0.2 0 0 1 64.3 4.4 0.4 0.4 0 0 1 64.4 4.4 0.4 0.4 0 0 0 64.6 4.4 0.2 0.2 0 0 0 64.7 4.3 0.5 0.5 0 0 1 65.1 4.1 0.1 0.1 0 0 0 65.2 4 0.1 0.1 0 0 0 65.2 3.9 0.1 0.1 0 0 0 65.1 3.8 0.2 0.2 0 0 1 64.9 3.7Q64.9 3.6 64.9 3.6A1.9 1.9 0 0 0 64.8 3.3Q64.7 3.2 64.5 3.1A0.4 0.4 0 0 1 64.3 2.8Q64.3 2.8 64.2 2.8 64.2 2.7 64.1 2.7L63.4 2.7 61.9 2.8A4.5 4.5 0 0 0 61.4 2.8 2.7 2.7 0 0 0 61.2 2.9 6.8 6.8 0 0 1 60.7 3 21.4 21.4 0 0 0 59.1 3.2L57.1 3.6A9.8 9.8 0 0 0 56.1 3.8 20.5 20.5 0 0 0 55.4 4L53.5 4.5A12.4 12.4 0 0 1 52.2 4.8L50.1 5.4Q50 5.4 49.9 5.3A3 3 0 0 0 49.5 4.5Q49.4 4.3 48.7 3.3 48.5 3.1 48.1 3A14.6 14.6 0 0 1 46.8 2.8 6.1 6.1 0 0 1 46.3 2.6Q46 2.5 45.6 2.5A0.6 0.6 0 0 0 45.3 2.7Q45.2 2.8 45.1 2.9L45.1 3.1Q45.2 3.6 45.5 4L45.5 4Q45.8 4.1 45.8 4.4L46.3 6.1 46.3 6.3 46.1 6.3Q46 6.5 45.8 6.5L45.5 6.6A12 12 0 0 1 44.3 6.8L42.9 7.2 41.4 7.6 40 8 38 8.7 37.2 9 36 9.3A0.6 0.6 0 0 0 35.8 9.4Q35.7 9.5 35.6 9.5A2.2 2.2 0 0 1 35.2 9.6 1.9 1.9 0 0 1 34.8 9.7 0.3 0.3 0 0 1 34.5 9.6 5.5 5.5 0 0 0 33.7 8.9 0.7 0.7 0 0 0 33.1 8.8 1.1 1.1 0 0 0 32.9 8.8L32.4 9A0.8 0.8 0 0 0 32.1 9.4 0.7 0.7 0 0 0 32 9.8 0.6 0.6 0 0 0 32.2 10.1 0.8 0.8 0 0 1 32.4 10.5 0.8 0.8 0 0 1 32.4 10.7 0.5 0.5 0 0 0 32.4 11Q32.4 11.1 32.5 11.2 32.5 11.3 32.6 11.4 32.8 11.5 32.8 11.8 32.8 11.9 32.7 12.2 32.7 12.7 32.6 12.9L32.7 13.5A1.6 1.6 0 0 1 32.6 13.8 1.3 1.3 0 0 0 32.5 14.2 0.1 0.1 0 0 0 32.5 14.3 0.1 0.1 0 0 0 32.6 14.4 1.4 1.4 0 0 0 33.5 15L33.8 14.9Q34 14.9 34.1 14.9L34.5 15.1 34.7 15.1A1.6 1.6 0 0 1 35 15 0.4 0.4 0 0 0 35.3 14.8 0 0 0 0 1 35.3 14.7L35.4 14.7 35.9 14.5 36 14.5 36.3 14.4A4 4 0 0 0 36.9 14.2 2.9 2.9 0 0 1 37.3 14.1 2.4 2.4 0 0 1 37.6 14.1 6.6 6.6 0 0 0 38.4 14L39 13.9 39.9 13.6 41.1 13.2 42.9 12.8A1.9 1.9 0 0 1 43.3 12.6Q43.4 12.6 43.7 12.6A0.8 0.8 0 0 0 43.8 12.6 0.5 0.5 0 0 0 44.1 12.4L44.2 12.4A1.4 1.4 0 0 1 44.5 12.4 0.5 0.5 0 0 0 44.5 12.4 0.6 0.6 0 0 0 44.7 12.3Q45.1 12.3 45.1 12.5A6.4 6.4 0 0 1 45.2 13.3L45.3 13.7 45.2 13.9A1.2 1.2 0 0 0 45.3 14.3L45.6 16.3 45.9 18.2 46 18.5 46.3 19.9 46.7 21.3A38.8 38.8 0 0 0 46.9 22.2 2.9 2.9 0 0 0 47.5 23.4Q47.6 23.6 47.6 23.6A0.8 0.8 0 0 0 47.9 23.5Q48 23.4 48.1 23.4A0.5 0.5 0 0 0 48.3 23.4 0.4 0.4 0 0 0 48.5 23.2 0.5 0.5 0 0 1 48.8 23Q49 23 49.1 23.1A0.5 0.5 0 0 1 49.4 23.4 0.6 0.6 0 0 0 49.6 23.2 0.9 0.9 0 0 1 49.7 23 1.6 1.6 0 0 1 49.9 22.6 0.1 0.1 0 0 1 50 22.6 0.2 0.2 0 0 1 50.2 22.7 0.1 0.1 0 0 0 50.2 22.7 0.2 0.2 0 0 0 50.4 22.5ZM47.9 34.8L47.8 34.8Q47.7 35.1 47.5 35.2A2.5 2.5 0 0 0 47.1 35.5 0.8 0.8 0 0 0 46.8 35.8 0.8 0.8 0 0 1 46.4 36.3L46.3 36.5 46.1 36.8A0.7 0.7 0 0 0 46.1 37.2Q46.1 37.2 46.3 37.3L46.7 37.4 47.1 37.4Q47.3 37.4 47.5 37.3A14.1 14.1 0 0 0 48.8 37L49.3 36.8 50.1 36.4 50.9 35.8 51 35.8 51.5 35.6 52.6 34.9Q52.8 34.8 53.3 34.5 53.8 34.2 54.1 33.9 54.3 33.6 54.5 33.7A73.3 73.3 0 0 0 55.6 34.4L57.4 35.3 58.6 35.8 60.9 36.8A14.5 14.5 0 0 0 62.3 37.2L62.9 37.3 64.9 37.8Q65 37.8 65.2 37.9A2 2 0 0 0 65.7 37.9 13.9 13.9 0 0 0 67.2 38 7.1 7.1 0 0 0 67.7 38.1 1.6 1.6 0 0 0 68.1 38.1 1.5 1.5 0 0 0 68.4 37.9L68.5 38Q68.7 38 69.1 37.9A0.8 0.8 0 0 0 69.5 37.8 0.5 0.5 0 0 1 69.7 37.7L69.9 37.6Q70 37.6 70.1 37.5L71.1 37A0.1 0.1 0 0 0 71.1 36.9Q71.2 36.7 71.5 36.6 71.6 36.5 71.7 36.2L72 36.2 71.9 36.1 71.6 36 71.7 35.8Q71.8 35.6 71.9 35.5 71.9 35.4 71.9 35.3A0.3 0.3 0 0 1 72 35.1 0.4 0.4 0 0 0 72.4 34.8 0.3 0.3 0 0 1 72.6 34.7 0.3 0.3 0 0 0 72.8 34.3 0.1 0.1 0 0 1 72.8 34.2 1.9 1.9 0 0 1 73.1 34 1.4 1.4 0 0 1 73.4 33.9Q73.6 33.8 73.6 33.5 73.6 33.4 73.6 33.3A0.7 0.7 0 0 1 73.8 33.1Q74.2 33 74.2 32.5 74.1 32.1 74.4 32L74.5 31.9 74.4 31.6A0.2 0.2 0 0 1 74.3 31.5 0.1 0.1 0 0 1 74.3 31.5Q74.3 31.4 74.3 31.4A1.3 1.3 0 0 0 74.1 31.3 0.2 0.2 0 0 0 74 31.3 0.3 0.3 0 0 0 73.8 31.4 1 1 0 0 1 73.1 31.9 1 1 0 0 1 72.9 31.9L69.7 31.9 67.2 31.8 65.6 31.6A7.7 7.7 0 0 1 64 31.4Q63.5 31.4 61.9 31.2L61.2 31 60.5 30.9A25.9 25.9 0 0 1 59.1 30.6L57.6 30.2 56.7 29.9 57.4 28.2 57.7 27 58 25.8 58.2 25 58.5 23.8A4 4 0 0 1 58.6 23.3 1.3 1.3 0 0 1 58.9 22.8 0.4 0.4 0 0 0 59 22.4 0.5 0.5 0 0 0 58.6 22L57.5 21.7A1.2 1.2 0 0 0 57.2 21.7L56.8 21.9 56.3 22Q55.6 22.1 54 22.5 53.6 22.6 52.8 22.8L51.6 23.2A117.3 117.3 0 0 1 47.9 24.2L47.8 24.2A0.4 0.4 0 0 1 47.5 24.1L47 23.9A0.3 0.3 0 0 0 46.9 23.9 3 3 0 0 1 46.4 24.2Q46.2 24.3 46.2 24.5 46.3 24.5 46.3 24.8 46.1 24.5 45.9 24.8L46.2 25.5 46.9 26.5A0.1 0.1 0 0 0 46.9 26.6 0 0 0 0 1 46.9 26.6 0.1 0.1 0 0 1 46.9 26.6 0.4 0.4 0 0 0 47.2 27Q47.4 27.1 47.6 27.1A2.8 2.8 0 0 0 47.9 27.1L48 27.1Q48.5 27 48.7 26.6 48.8 26.6 48.8 26.4A0.5 0.5 0 0 1 49 26.2Q49.8 25.8 50.1 25.7 50.7 25.5 52.1 25 53.9 24.4 54.8 24.2L55.5 24A0.2 0.2 0 0 1 55.7 24.1 0.3 0.3 0 0 1 55.7 24.2 0.4 0.4 0 0 1 55.7 24.4 38.2 38.2 0 0 1 55 26.8 8.2 8.2 0 0 1 54.5 27.8L53.8 29.4Q53.7 29.5 53.5 29.5L51.3 29.2 50.9 29.1A1.4 1.4 0 0 1 50.6 29 0.4 0.4 0 0 0 50.4 29 0.4 0.4 0 0 0 50.3 29L50.2 29A0.9 0.9 0 0 1 49.7 28.9 0.3 0.3 0 0 0 49.6 28.9 0.4 0.4 0 0 0 49.5 28.9Q49.4 29 49.3 29 49.2 29.3 49.1 29.6 49.1 29.7 49 29.8A0.3 0.3 0 0 1 48.9 29.8 0.7 0.7 0 0 1 48.8 29.9L48.9 30.1A5.6 5.6 0 0 0 49.4 30.6Q49.7 30.8 49.9 31.1 50.3 31.6 50.6 31.7A3.1 3.1 0 0 1 50.8 31.8 3.1 3.1 0 0 0 51 31.9L51.3 31.9A0.2 0.2 0 0 1 51.5 32.1 0.1 0.1 0 0 1 51.4 32.2L50.9 32.7Q50.8 32.8 50.7 33A0.6 0.6 0 0 1 50.3 33.2 0.4 0.4 0 0 0 50.2 33.3 1.6 1.6 0 0 0 49.9 33.6L49.4 34A1.2 1.2 0 0 1 48.8 34.3 0.6 0.6 0 0 1 48.6 34.3 1.6 1.6 0 0 0 48.1 34.4 0.3 0.3 0 0 1 48.1 34.6 1 1 0 0 1 47.9 34.8ZM134.9 55.6L135 55.5A0.2 0.2 0 0 1 135 55.2L135.1 54.9Q135.3 54.6 135.6 54.5 135.5 54.3 135.6 54.1L135.7 53.7A1.2 1.2 0 0 0 135.8 53.3Q135.7 53 135.8 52.9A16.6 16.6 0 0 1 136.2 52.3 6.3 6.3 0 0 0 136.4 52 3.5 3.5 0 0 0 136.6 51.6L136.9 51.1A6.8 6.8 0 0 1 137.4 50.3L137.4 50.2A0.5 0.5 0 0 1 137.5 50 0.8 0.8 0 0 1 137.8 49.8L137.9 49.5A0.8 0.8 0 0 0 138.1 49.2Q137.9 49.2 137.8 49.2L137.8 48.8 137.8 48.5A2.3 2.3 0 0 1 137.6 48.8 2.9 2.9 0 0 1 137.3 49.1Q137.1 49.2 136.6 49.5A6.4 6.4 0 0 1 135.6 50.1Q134.9 50.5 133.9 50.9A5.2 5.2 0 0 1 132.1 51 6.8 6.8 0 0 1 129.9 50.5Q128.1 49.7 127.4 49.3A12.4 12.4 0 0 1 126.6 48.8 7.7 7.7 0 0 1 126.3 48.7Q125.9 48.4 125.6 48.2L124.8 47.7 124 47.1A4.1 4.1 0 0 0 123.4 46.7 0.3 0.3 0 0 1 123.2 46.3 8.4 8.4 0 0 1 123.8 45.1L123.8 45A9.5 9.5 0 0 1 124.2 43.9 22.2 22.2 0 0 1 125.1 41.8 12 12 0 0 1 125.7 40.7 2.7 2.7 0 0 0 126 40.2 4 4 0 0 0 126.3 39.7 4.3 4.3 0 0 1 126.6 39.1 9.1 9.1 0 0 0 126.9 38.4Q127.2 38 127.3 37.7 127.4 37.6 127.4 37.4 127.5 37.2 127.6 37L127.7 36.9A5.4 5.4 0 0 0 128.1 36.1Q128.1 35.9 128.3 35.7 128.6 35.2 128.7 34.9L129.2 33.8Q129.3 33.5 129.7 32.9A2.3 2.3 0 0 1 130 32.2L130.6 31.3Q130.8 30.9 131 30.5L131 30.4A18.7 18.7 0 0 1 131.8 29.1L132.1 28.6 132.4 28 133 27.1 133.6 26Q133.9 25.5 134.1 25.3L134.2 25.1Q134.3 24.9 134.4 24.7L134.4 24.4 134.4 23.9 134.2 23.5A9.4 9.4 0 0 0 134.1 23 1.5 1.5 0 0 0 133.9 22.6Q133.9 22.5 133.8 22.4 133.8 22.4 133.7 22.2A8.6 8.6 0 0 0 133.3 21.8L133.2 21.7A0.2 0.2 0 0 0 132.9 21.8 0.5 0.5 0 0 0 132.9 21.9 0.1 0.1 0 0 1 132.9 21.9 0.5 0.5 0 0 1 132.7 22 1.1 1.1 0 0 0 132.4 22.3 4.4 4.4 0 0 0 132 22.9L131.4 23.9 130.5 25.3 129.8 26.4 129.7 26.7 129.3 27.5A17.9 17.9 0 0 1 128.5 28.8L127.7 30.1 126.5 32.1A53.2 53.2 0 0 1 125.3 34.3 20.5 20.5 0 0 1 124.5 35.7L123.4 37.6Q122.8 38.7 122.3 39.9 121.9 40.6 121.8 41L121.4 42.2A13.2 13.2 0 0 1 121 43.4Q121 43.7 120.9 43.8L120.8 43.9A1.4 1.4 0 0 0 120.6 44.7L120.7 45.6A6.1 6.1 0 0 0 120.8 46.7 4.4 4.4 0 0 0 120.9 47.5 4.3 4.3 0 0 1 121 48.2L121 48.3A0.1 0.1 0 0 0 120.9 48.3 0.1 0.1 0 0 0 120.9 48.4L121 48.5A1.1 1.1 0 0 0 121.2 49.2L121.2 49.4 121.3 50.1A0.3 0.3 0 0 1 121.6 50.1 0.3 0.3 0 0 1 121.7 50.2Q121.7 50.5 121.8 50.6A2.2 2.2 0 0 0 122 50.8Q122.3 51 122.7 51.3L123.6 52.3A3.4 3.4 0 0 1 123.8 52.4 0.4 0.4 0 0 1 123.9 52.8 0.1 0.1 0 0 0 124 52.9L124.8 53.7A5.8 5.8 0 0 0 125.5 54.5 13.5 13.5 0 0 0 126.6 55.2L127.4 55.7 127.5 55.8A0.2 0.2 0 0 0 127.6 55.9 0.3 0.3 0 0 0 127.6 56Q127.7 56 127.8 56.1A1.5 1.5 0 0 0 128.2 56.2L128.6 56.3A0.9 0.9 0 0 1 129.1 56.5 2.4 2.4 0 0 1 129.3 56.7 2.6 2.6 0 0 0 129.8 57.1 0.1 0.1 0 0 0 129.8 57.3 5.5 5.5 0 0 0 130.4 57.6Q130.8 57.7 130.9 57.8A1 1 0 0 0 131.2 57.9 0.5 0.5 0 0 0 131.4 57.9 0.4 0.4 0 0 1 131.8 57.9 0.3 0.3 0 0 0 132.1 57.8Q132.1 57.8 132.2 57.8A0.2 0.2 0 0 0 132.5 57.8 0.3 0.3 0 0 0 132.5 57.6 0.6 0.6 0 0 1 132.6 57.3 0.6 0.6 0 0 1 133 57.1 0.2 0.2 0 0 0 133.1 57 0.2 0.2 0 0 0 133.1 56.8Q133 56.7 133.1 56.6A0.6 0.6 0 0 1 133.6 56.3 0.6 0.6 0 0 0 134.1 56.1Q134.3 56 134.4 55.9A3 3 0 0 0 134.6 55.7 0.3 0.3 0 0 1 134.9 55.6ZM76.6 6.3L76.6 6.4A0.5 0.5 0 0 0 76.7 6.9 0.5 0.5 0 0 1 77 7.5Q76.9 8.1 77 8.5A0.3 0.3 0 0 0 77.2 8.7L77.4 8.7A1 1 0 0 0 78.1 8.5 8.2 8.2 0 0 1 79.5 7.9 9.5 9.5 0 0 1 81.8 7.6Q82.3 7.5 82.9 7.5 83.6 7.6 83.8 7.5A0.4 0.4 0 0 1 84 7.5 0.2 0.2 0 0 1 84.1 7.6L84.2 7.8 84.7 9.5A1.9 1.9 0 0 0 85 10.1 10.4 10.4 0 0 1 85.5 10.7 0.3 0.3 0 0 0 85.6 10.8 0.2 0.2 0 0 0 85.6 10.8 0.3 0.3 0 0 0 85.8 10.8Q85.8 10.8 85.9 10.7A0.4 0.4 0 0 0 85.9 10.6Q86 10.5 85.9 10A8.8 8.8 0 0 1 85.9 9.5 2.5 2.5 0 0 1 86 9.1 2.5 2.5 0 0 1 86.2 8.5 2.7 2.7 0 0 0 86.5 8 10.7 10.7 0 0 0 86.8 7.5 0.5 0.5 0 0 1 87.2 7.2Q87.7 7.2 88.2 7.1A0.4 0.4 0 0 1 88.4 7.3Q88.5 7.5 88.7 7.8 88.9 8.1 89 8.2A0.1 0.1 0 0 0 89.1 8.2 0.7 0.7 0 0 1 89.4 8.2 0.3 0.3 0 0 0 89.6 8L90.6 7A3.9 3.9 0 0 0 91 6.4Q91.2 6.1 91.4 5.8 91.5 5.8 91.6 5.7A0.5 0.5 0 0 0 91.7 5.4Q91.8 5.3 91.9 5 92 4.7 92.1 4.5 92.2 4.3 92.2 3.9A1.6 1.6 0 0 0 91.5 2.2 9.3 9.3 0 0 0 90.5 1.7 0.6 0.6 0 0 0 90 1.8Q89.9 1.8 89.8 1.9A0.2 0.2 0 0 0 89.7 2.1 0.3 0.3 0 0 0 89.8 2.3L89.8 2.4Q89.8 2.5 89.6 2.9 89.5 3.2 89.4 3.3A16.1 16.1 0 0 0 88.9 5 0.2 0.2 0 0 0 88.7 5.1Q88.7 5.2 88.7 5.2A7.9 7.9 0 0 1 87.7 5L87.6 5A0.2 0.2 0 0 1 87.5 4.7 12.1 12.1 0 0 1 87.6 4.1 4.7 4.7 0 0 0 87.7 3.8 3.3 3.3 0 0 0 87.7 3.4 2.5 2.5 0 0 0 87.7 2.8 9.4 9.4 0 0 0 87.5 1.6 76 76 0 0 1 87.2 0.7 0.6 0.6 0 0 0 86.7 0.2 1.3 1.3 0 0 1 86.4 0 0.4 0.4 0 0 0 86.3 0 0.2 0.2 0 0 0 86.1 0.1L86 0.1A0.5 0.5 0 0 0 85.5 0.2Q85.2 0.7 85.2 0.7 85.1 0.9 84.9 1.1A5.4 5.4 0 0 0 84.7 1.6 23 23 0 0 0 84.4 3.3Q84.1 4.4 84 4.9A0.3 0.3 0 0 1 83.8 5.1 4.4 4.4 0 0 1 83.3 5.2 9.8 9.8 0 0 0 82.7 5.2 36.2 36.2 0 0 0 80.7 5.3 8.8 8.8 0 0 0 79.5 5.5 4.7 4.7 0 0 1 79.8 5L80.3 4A5.3 5.3 0 0 0 80.6 3.4 5.3 5.3 0 0 1 81 2.8 17.9 17.9 0 0 0 81.3 2.4 1.8 1.8 0 0 0 81.6 1.7Q81.6 1.5 81.5 1.1A0.3 0.3 0 0 0 81.3 1Q81.2 1 81.1 1A0.2 0.2 0 0 1 81 1.1Q80.8 1.2 80.8 1.2L80.7 1.1A0.4 0.4 0 0 0 80.3 1.3 1.4 1.4 0 0 1 80.1 1.6 9.6 9.6 0 0 0 79.2 3.2Q78.9 3.7 78.6 4.3 78.3 4.8 77.9 5.1A3.2 3.2 0 0 0 77.7 5.3 0.3 0.3 0 0 1 77.5 5.4Q76.8 5.4 77 6A0.3 0.3 0 0 0 76.7 6.1 1 1 0 0 0 76.6 6.3ZM93.7 8.8L94.1 9.6Q94.4 10.1 94.6 10.1A0.5 0.5 0 0 0 95.1 9.9Q95.5 9.6 95.8 9.6A12.4 12.4 0 0 1 96.5 9.6 12.4 12.4 0 0 0 97.2 9.5Q97.4 9.6 97.8 9.6A15.8 15.8 0 0 0 98.4 9.6 3.1 3.1 0 0 1 99.4 9.7L99.9 9.8Q100 9.8 100 9.9A0.2 0.2 0 0 1 100 10L99.9 10.5A0.6 0.6 0 0 1 99.8 10.6Q99.8 10.7 99.8 10.7 100.1 10.9 100.2 11.2 100.2 11.5 100.4 11.6A0.5 0.5 0 0 0 100.7 11.9 0.4 0.4 0 0 0 101 11.8 3.2 3.2 0 0 0 101.4 11.3Q101.6 11.1 101.7 10.8A0.8 0.8 0 0 0 101.9 10.6 3 3 0 0 1 102.1 10.4 1.6 1.6 0 0 1 102.6 10.1 1.2 1.2 0 0 1 103.1 10.1 2.8 2.8 0 0 0 103.7 10.1 8 8 0 0 1 104.4 10.1 0.3 0.3 0 0 1 104.6 10.2L104.9 10.6A1.6 1.6 0 0 0 105.2 10.9 0.8 0.8 0 0 0 105.6 10.7 1.7 1.7 0 0 1 106 10.4Q106.3 10.2 106.3 10.1 106.8 9.8 107.1 9.4 107.2 9.3 107.6 8.7L107.8 8.2 107.9 7.6A7.3 7.3 0 0 0 108.2 6.7 3.7 3.7 0 0 0 108.2 6.2 2 2 0 0 1 108.2 5.9 0.9 0.9 0 0 1 108.3 5.7 2.9 2.9 0 0 0 108.3 5.5 2.8 2.8 0 0 0 108.2 4.1Q108.2 3.8 107.9 3.6 107.6 3.4 107.3 3.5L107.1 3.4Q107 3.4 106.7 3.3 106.6 3.3 106.5 3.4A2.1 2.1 0 0 0 106.3 3.8 34.4 34.4 0 0 0 105.5 5.5L105 7A1.2 1.2 0 0 1 104.8 7.3Q104.7 7.4 104.6 7.4A3.2 3.2 0 0 1 103.7 7.3L103.6 7.3Q103.5 7.3 103.5 7 103.9 5.3 104.2 4.5A4.2 4.2 0 0 0 104.3 2.9 1 1 0 0 0 103.7 2.1 0.4 0.4 0 0 0 103.6 2.1 1.5 1.5 0 0 1 103.2 2.1 1.4 1.4 0 0 1 102.8 1.9 0.5 0.5 0 0 0 102.7 1.9 0.2 0.2 0 0 0 102.4 2.1 0.3 0.3 0 0 1 102.5 2.3 0.3 0.3 0 0 1 102.4 2.5Q102.3 2.8 102.1 3.2A7.3 7.3 0 0 0 101.8 4L101 6.7A0.2 0.2 0 0 1 100.9 6.9 0.2 0.2 0 0 1 100.7 6.9 26.5 26.5 0 0 0 99 6.9L96.9 7 96.1 7A72.5 72.5 0 0 0 96.5 6.2 6.3 6.3 0 0 1 96.9 5.5 1.1 1.1 0 0 0 97.2 5 1.7 1.7 0 0 0 97.1 4.2 1.2 1.2 0 0 0 96.7 3.8Q96.4 3.6 96.2 3.6A2.6 2.6 0 0 1 95.9 3.5 0.9 0.9 0 0 0 95.8 3.5 0.6 0.6 0 0 0 95.6 3.5 0.7 0.7 0 0 0 95.3 3.5 0.5 0.5 0 0 0 95.2 3.5L95.2 3.7Q95.1 3.9 95 4A3.7 3.7 0 0 0 94.8 4.3 16.3 16.3 0 0 0 93.9 6.1 1.5 1.5 0 0 1 93.5 6.9 0.8 0.8 0 0 1 93.5 7.3 0.5 0.5 0 0 1 93.4 7.6 0.6 0.6 0 0 0 93.4 7.7Q93.4 7.8 93.4 7.8 93.6 7.9 93.7 8 93.7 8.1 93.7 8.4A3 3 0 0 0 93.7 8.8ZM114.3 27.3L114.4 27.4A10.7 10.7 0 0 1 114.7 26.3Q115.1 25.3 115.3 24.7L115.5 24A1.6 1.6 0 0 0 115.5 23.2Q115.5 23.1 115.4 22.8 115.3 22.5 115.1 22.3A0.7 0.7 0 0 0 115 22.2 0.7 0.7 0 0 0 114.7 22.1L114.6 22A0.4 0.4 0 0 0 114.6 21.9 0.1 0.1 0 0 0 114.5 21.9 0.1 0.1 0 0 0 114.4 22 0.4 0.4 0 0 0 114.4 22.1 0.3 0.3 0 0 0 114.3 22.2 0.2 0.2 0 0 1 114.3 22.3Q114.2 22.8 114.1 23.1 114 23.3 113.9 23.5 113.8 23.7 113.6 24 113.3 24.7 113.1 24.9L112.9 25.3A0.4 0.4 0 0 0 112.8 25.7 0.1 0.1 0 0 0 112.8 25.7 0 0 0 0 1 112.8 25.8 0.1 0.1 0 0 1 112.8 25.8Q112.7 25.9 112.5 26.1A0.8 0.8 0 0 1 112.2 26.4L112.2 26.5Q112.1 26.6 112.1 26.7A0.4 0.4 0 0 1 112 26.8 0.2 0.2 0 0 1 112 26.9 1.8 1.8 0 0 1 111.7 27.2Q111.6 27.4 111.5 27.5L110.8 28.6 110.4 29.1 109.7 30.2A7.6 7.6 0 0 1 109.1 31L108.3 32.2 107.9 32.9 107.6 33.4 106.5 35 105.8 36 105.1 37.1A1 1 0 0 1 104.9 37.3 1 1 0 0 0 104.7 37.5 0.4 0.4 0 0 0 104.7 37.9L104.7 38 104.5 38.5 104.5 38.8 104.5 39Q104.5 39.1 104.5 39.4 104.5 39.6 104.6 39.9 104.8 40.2 104.7 40.5A0.2 0.2 0 0 0 104.8 40.8 0.5 0.5 0 0 0 104.9 40.9L105.1 40.9A0.2 0.2 0 0 1 105.3 40.9 0.1 0.1 0 0 1 105.3 41Q105.3 41.8 105.3 42.1 105.3 42.2 105.4 42.3L105.7 42.3Q105.8 42.1 106.1 41.8A1.4 1.4 0 0 0 106.3 41.5 1 1 0 0 0 106.3 41.4 2.6 2.6 0 0 1 106.5 41.2Q106.6 40.9 106.7 40.8A3.7 3.7 0 0 0 107.3 40.1 1.8 1.8 0 0 0 107.5 39.6 6.2 6.2 0 0 1 108 38.8 12.1 12.1 0 0 0 108.5 37.8 3.6 3.6 0 0 1 108.6 37.4L109.2 36.4A12.4 12.4 0 0 0 109.8 35.2 4.8 4.8 0 0 1 110.3 34.6L110.7 34.1A0.5 0.5 0 0 0 110.9 33.9 0.7 0.7 0 0 0 111 33.6 44.6 44.6 0 0 1 111.8 32 6.9 6.9 0 0 0 112.4 30.8Q112.8 29.7 113.1 29.3L113.2 29.1 113.8 28.3A0.5 0.5 0 0 1 113.9 28.2 0.3 0.3 0 0 0 114 28.1 0.1 0.1 0 0 0 114 28.1 4.2 4.2 0 0 0 114.3 27.3ZM126 14.5L125.3 14.2A16.4 16.4 0 0 0 122.8 13.4L121 13A31.6 31.6 0 0 0 119.1 12.7 6.8 6.8 0 0 1 117.5 12.3 0.4 0.4 0 0 1 117.4 12Q117.4 11.9 117.4 11.8A0.4 0.4 0 0 0 117.2 11.4Q117.1 11.3 117 11.1A1.1 1.1 0 0 0 116.9 10.8 0.7 0.7 0 0 0 116.7 10.4 1.4 1.4 0 0 0 116.5 10.3 0.3 0.3 0 0 1 116.4 10.3 0.4 0.4 0 0 1 116.3 10.1 0.2 0.2 0 0 0 116.2 10.1 1.6 1.6 0 0 0 115.9 9.9 0.1 0.1 0 0 0 115.7 10 0.4 0.4 0 0 0 115.7 10.1 0.5 0.5 0 0 1 115.5 10.3L114.9 10.8A0.2 0.2 0 0 0 114.8 10.8 0.1 0.1 0 0 0 114.8 11Q115 11.2 115 11.4A0.1 0.1 0 0 1 115.1 11.6 0.4 0.4 0 0 0 114.8 11.8 0.6 0.6 0 0 0 114.7 12.2L114.7 12.3 114.2 13.4 114.1 13.7Q114.1 14 113.9 14.5A3 3 0 0 0 113.8 14.8Q113.7 15 113.7 15.1L113.9 15.4A0.7 0.7 0 0 1 114.1 16Q114 16.1 114.1 16.3A0 0 0 0 0 114.1 16.3 0.1 0.1 0 0 0 114.2 16.3 1.7 1.7 0 0 1 115 16.6 4.8 4.8 0 0 1 115.4 16.9 0.6 0.6 0 0 0 115.9 17L116.1 16.9Q116.4 16.7 116.6 16.8 117.4 17.1 117.9 17.2A26.1 26.1 0 0 0 119 17.4 9.1 9.1 0 0 1 120.2 17.5 0.7 0.7 0 0 0 120.8 17.5L120.8 17.5 121.1 17.6 121.3 17.7Q121.7 17.7 122.2 17.7A9.2 9.2 0 0 1 123 17.7Q123.1 17.7 123.3 17.6A3.4 3.4 0 0 1 123.6 17.5L123.9 17.6 124.1 17.5Q124.2 17.5 124.4 17.4A0.5 0.5 0 0 1 124.7 17.4 0.4 0.4 0 0 0 125.1 17.3Q125.1 17.3 125.2 17.2 125.3 17 125.3 17 125.5 16.9 126 16.8L126.7 16.6 127 16.6A0.8 0.8 0 0 1 127.4 16.6Q127.8 16.8 128 16.4L127.6 15.9A0.2 0.2 0 0 0 127.4 15.6Q127.3 15.6 127.1 15.3A0.7 0.7 0 0 1 127 15.2 1 1 0 0 0 126.7 15Q126.5 14.8 126.3 14.7A4.1 4.1 0 0 1 126 14.5ZM13.2 27.3L13 26.9 13 26.8A0.5 0.5 0 0 1 13 26.4L13.6 25.4Q13.7 25.3 13.8 25.2A17.9 17.9 0 0 1 14.3 25.2 0.8 0.8 0 0 0 14.7 25 0.3 0.3 0 0 1 14.8 24.9 0.3 0.3 0 0 1 15.2 25 0.5 0.5 0 0 0 15.5 25.3Q15.5 25.3 15.7 25.2A0.2 0.2 0 0 1 15.8 25.1 0.1 0.1 0 0 1 15.8 25L15.9 25.1A0.7 0.7 0 0 0 16.3 25 0.3 0.3 0 0 0 16.4 24.9Q16.7 24.6 17.2 24.3L17.3 24.3 17.6 24.3Q18.2 23.7 18.6 23.4L18.8 23.3 19.3 23.3A0.8 0.8 0 0 0 19.6 23.1Q19.6 22.6 19.6 22.4 19.6 22.4 19.6 22.3A0.3 0.3 0 0 1 19.7 22Q19.7 21.9 19.7 21.8A3.8 3.8 0 0 0 19.4 21.2L19 20.4Q19 20.3 18.8 19.9A1.5 1.5 0 0 1 18.7 19.4 1.2 1.2 0 0 0 18.6 19 1.4 1.4 0 0 0 18.5 18.8 0.3 0.3 0 0 0 18.2 18.7 0.1 0.1 0 0 1 18 18.7 2.8 2.8 0 0 1 17.2 17.8 1.8 1.8 0 0 1 17 17.5 1 1 0 0 0 16.9 17.2 2.5 2.5 0 0 0 16.4 16.7 7.5 7.5 0 0 1 16 16.2 0.6 0.6 0 0 0 15.5 15.9 0.3 0.3 0 0 1 15.3 15.9 0.3 0.3 0 0 0 15.2 15.8L14.5 15.2 14.4 15.3Q14.4 15.4 14.3 15.5A1.5 1.5 0 0 0 14.2 15.8 0.4 0.4 0 0 1 14.1 16 0.3 0.3 0 0 1 14 16.1L13.9 16.1Q13.9 16.4 13.8 16.6 13.6 16.8 13.5 16.9 13.3 17.2 13 17.6A13.3 13.3 0 0 0 12.6 18.3Q12.3 18.8 12.1 19.2A7.6 7.6 0 0 0 11.7 19.9L11.1 21.2A1.8 1.8 0 0 0 11 21.8L11.3 24.3 11.5 25.5 11.7 26.1Q11.9 26.5 11.8 26.7A1.6 1.6 0 0 0 11.8 27.1 0.2 0.2 0 0 0 11.8 27.3 0.2 0.2 0 0 0 11.9 27.3Q11.9 27.4 12.1 27.4L12.6 27.4A0 0 0 0 0 12.6 27.4 4.8 4.8 0 0 0 13.2 27.3ZM139.1 28.2L139.1 28.2A0.5 0.5 0 0 1 139.3 28.3Q139.4 28.4 139.5 28.4L139.6 28.6A0.1 0.1 0 0 1 139.6 28.7 0.1 0.1 0 0 1 139.6 28.7 0.1 0.1 0 0 1 139.6 28.8L138.9 29.2 138.2 29.6Q138 29.7 137.8 29.8A2 2 0 0 1 137.5 30 22.1 22.1 0 0 1 136.7 30.2 18.1 18.1 0 0 1 136 30.4Q134.3 30.8 133.5 30.9 133.1 30.9 132.5 31A15.5 15.5 0 0 0 131.5 31.1L131.2 31.1A0.4 0.4 0 0 0 130.9 31.2 0.4 0.4 0 0 0 130.8 31.3 0.1 0.1 0 0 0 130.8 31.4 1.3 1.3 0 0 1 131 31.8Q131.1 32.1 131.3 32.2A0 0 0 0 1 131.3 32.2 0.2 0.2 0 0 1 131.4 32.3 0.8 0.8 0 0 0 131.6 32.6 2.5 2.5 0 0 0 132.9 32.9 0.8 0.8 0 0 1 133.3 33 0.5 0.5 0 0 1 133.5 33.3L133.6 33.4 134.1 33.6A0.6 0.6 0 0 1 134.3 33.7 0.1 0.1 0 0 1 134.4 33.7 0.2 0.2 0 0 1 134.5 33.7Q134.5 33.8 134.6 33.8 135.1 33.8 135.5 33.7 137 33.4 137.2 33.3 137.4 33.3 137.7 33.2L137.7 33.1 138.9 32.5Q139.2 32.3 139.5 32.1 139.7 31.9 140 31.7 140.1 31.7 140.4 31.6A3.9 3.9 0 0 1 141.1 31.2Q141.2 31.1 141.3 31A5.4 5.4 0 0 0 141.7 30.7L141.8 30.6Q141.8 30.6 141.9 30.4 142 30.3 142.1 30.1A1.2 1.2 0 0 0 142.2 29.5 0.6 0.6 0 0 0 142.1 29.2 4.9 4.9 0 0 1 142 29 2.8 2.8 0 0 0 141.6 28.5Q141.5 28.4 141.4 28.2A1.2 1.2 0 0 0 141.1 28L141 27.9Q140.8 27.8 140.6 27.9L140.7 28.1A0.1 0.1 0 0 1 140.6 28.1 0.2 0.2 0 0 1 140.5 28Q140.5 27.9 140.4 27.8A7.1 7.1 0 0 1 140.1 27.7 5 5 0 0 1 139.7 27.6Q139.5 27.6 139.3 27.6A0.4 0.4 0 0 0 139.1 27.8 0.4 0.4 0 0 0 139.1 27.9 0.4 0.4 0 0 0 139.1 28 0.4 0.4 0 0 0 139.1 28.2ZM80.5 19.1L80.7 19.2A1.9 1.9 0 0 1 81.1 19.2Q81.4 19.2 81.7 19.7A1 1 0 0 0 82.1 20.2L82.2 20.4A0.2 0.2 0 0 1 82.2 20.5 0.5 0.5 0 0 0 82.7 20.9Q83.6 20.9 84 21A3.3 3.3 0 0 0 84.6 20.9 6.3 6.3 0 0 1 85 20.9 4.9 4.9 0 0 1 86.7 20.8 1.7 1.7 0 0 0 87 20.9 2.4 2.4 0 0 0 87.2 20.9 6.4 6.4 0 0 1 87.6 21L87.2 22.6Q87.2 22.7 86.9 22.7 85.9 22.6 85.2 22.6A18.9 18.9 0 0 0 80.9 22.5 14.2 14.2 0 0 0 79.8 22.5L79.2 22.5Q79.8 20 80.1 18.8 80.4 19 80.5 19.1ZM86.8 17.6L84.9 17.5Q83.3 17.3 83.2 17.3L81.7 17.3Q81.4 17.3 81.1 17.3A9.3 9.3 0 0 1 80.5 17.3 2.1 2.1 0 0 0 80.5 16.8 1.9 1.9 0 0 1 80.5 16.4Q80.6 16.2 80.8 16A0.5 0.5 0 0 1 81.2 15.7 0.2 0.2 0 0 0 81.4 15.7Q81.7 15.4 82.1 15.4A4.9 4.9 0 0 1 82.8 15.3Q83 15.2 83.2 15.2 83.3 15.2 83.6 15.2A2.1 2.1 0 0 0 84.1 15.3 12 12 0 0 0 85.5 15.2 29.6 29.6 0 0 1 87.8 15.2Q88.9 15.3 89.6 15.3 89.6 15.3 89.9 15.3A15.4 15.4 0 0 0 89.7 15.9 6.2 6.2 0 0 1 89.4 16.6Q89.2 17.3 89 17.6A0.2 0.2 0 0 1 88.7 17.8 29.4 29.4 0 0 0 86.8 17.6ZM94.2 18.5L94.3 17.8 94.7 16A0.3 0.3 0 0 1 95 15.8 5.5 5.5 0 0 0 95.8 15.9Q96.1 15.9 96.3 15.9L97.5 16A7.6 7.6 0 0 1 98.6 16.1 9 9 0 0 1 99.6 16.2L100.6 16.4 101.4 16.4A1.3 1.3 0 0 1 101.7 16.4 0.1 0.1 0 0 1 101.8 16.4 0.4 0.4 0 0 1 101.8 16.7L101.2 19.3 101.2 19.4 101.2 19.4 94.2 18.5ZM44.7 17.8L44.6 17.7A1.9 1.9 0 0 1 44.3 17.9L43.3 18.3A27.7 27.7 0 0 1 42.5 18.5 6.1 6.1 0 0 1 41.6 18.8 1.1 1.1 0 0 1 40.4 18.3 2.3 2.3 0 0 1 39.8 17.3 1.1 1.1 0 0 0 39.4 16.9 3.9 3.9 0 0 1 39 16.5Q39 16.5 39 16.5A0 0 0 0 0 38.9 16.5 0 0 0 0 0 38.9 16.5 1 1 0 0 0 38.6 16.8 5.4 5.4 0 0 0 37.9 18.4 1 1 0 0 0 37.8 18.9 1.5 1.5 0 0 0 37.9 19.2L38.4 20.3A0.8 0.8 0 0 0 38.7 20.8 0.7 0.7 0 0 0 39.2 20.9L39.8 20.7Q40 20.7 40.2 20.7A0.5 0.5 0 0 1 40.4 20.8Q40.6 20.8 40.7 20.8 41.2 20.7 41.8 20.4 41.9 20.4 42.1 20.2L42.6 19.8A0.4 0.4 0 0 0 42.8 19.6Q42.9 19.4 43.1 19.3 43.4 19.1 43.5 19L43.6 18.8A0.5 0.5 0 0 1 43.8 18.6 3 3 0 0 0 44.1 18.4L44.7 17.8ZM99.6 24.1L98.7 24A25.7 25.7 0 0 0 97.3 23.8 24.1 24.1 0 0 0 96.1 23.6L94.8 23.5 93.5 23.3A0.4 0.4 0 0 1 93.3 23.3 0.1 0.1 0 0 1 93.3 23.3 0.1 0.1 0 0 1 93.2 23.2 0.3 0.3 0 0 1 93.3 23.1L93.7 21.7Q93.9 21.5 94 21.5A3.8 3.8 0 0 1 95.2 21.5Q95.6 21.6 96.3 21.7A46.6 46.6 0 0 0 97.5 21.8 1.3 1.3 0 0 0 98.2 21.6 6.6 6.6 0 0 0 98.9 21.4 2.8 2.8 0 0 0 99.8 20.9Q100 20.8 100.5 20.8A0.3 0.3 0 0 1 100.6 20.8 0.1 0.1 0 0 1 100.7 21 6.4 6.4 0 0 0 100.5 21.8L100 23.1A12.8 12.8 0 0 1 99.6 24.1ZM59 16.4L59.1 16.4 59.2 16.3A1.2 1.2 0 0 0 59.6 16.2Q59.8 16 60 15.9A0.5 0.5 0 0 0 60.2 15.8 0.2 0.2 0 0 1 60.3 15.8 0.2 0.2 0 0 1 60.4 15.8L60.5 15.8Q60.7 15.7 60.8 15.5 61 15.1 61.3 14.9 61.8 14.5 61.7 14.1 61.6 13.8 61.7 13.7A0.6 0.6 0 0 0 61.7 13.5 1 1 0 0 0 61.3 12.8Q61 12.5 60.7 12.3 60.3 12.2 60.2 12.1 60.1 12.1 60 12.1L59.9 12.1A3.3 3.3 0 0 1 59.4 12.1 1.8 1.8 0 0 0 59.1 12.2 1.2 1.2 0 0 0 58.9 12.2 0.7 0.7 0 0 0 58.5 12.6 0.1 0.1 0 0 0 58.5 12.7 0.1 0.1 0 0 0 58.6 12.7 0.7 0.7 0 0 0 58.7 12.8L58.7 12.9A7.3 7.3 0 0 1 59 13.8 1.5 1.5 0 0 1 59.1 14.1 1.2 1.2 0 0 1 59.1 14.2 1.2 1.2 0 0 0 59.1 14.4 1.5 1.5 0 0 0 59.2 14.7L59.2 14.8Q59.3 15.1 59.2 15.6L58.9 15.9 58.7 16.1A0.9 0.9 0 0 0 58.4 16.5 0.6 0.6 0 0 0 58.7 16.5 1.4 1.4 0 0 0 59 16.4ZM85.7 34.7L85.8 34.4Q86.5 32.7 86.8 31.9A0.4 0.4 0 0 0 86.9 31.6Q87 31.5 87.1 31.4 87.2 31.4 87.4 31.4L89.3 31.8 89.4 31.8Q89.6 31.9 89.5 32A19.5 19.5 0 0 0 89.3 33.4 28.5 28.5 0 0 0 89.2 34.4 1.6 1.6 0 0 1 88.9 35.1 85.7 85.7 0 0 1 85.7 34.7ZM90.3 27.4L90.3 27.6 90.2 28.4A0.2 0.2 0 0 1 89.9 28.7L88 28.5 87.9 28.4A2.2 2.2 0 0 1 88.5 27.2 0.6 0.6 0 0 0 88.7 27 1 1 0 0 0 88.8 26.8 3 3 0 0 1 89.1 26.1Q89.2 25.9 89.4 25.9 89.6 25.9 89.9 25.9 90.2 25.9 90.3 26A0.2 0.2 0 0 1 90.5 26.3 9.8 9.8 0 0 0 90.4 26.9 3.6 3.6 0 0 1 90.4 27.1 1.9 1.9 0 0 1 90.3 27.4ZM91.1 20.7L91.3 20.7Q91.6 20.8 91.6 21.1L91.5 21.5A10.3 10.3 0 0 1 91.3 22.2 4.1 4.1 0 0 0 91.3 22.4 6.7 6.7 0 0 0 91.2 23 0.2 0.2 0 0 1 91 23.2L90.3 23.1A1.2 1.2 0 0 0 90.4 22.7 3.4 3.4 0 0 1 90.6 21.8Q90.7 21.6 90.9 21.3A3.8 3.8 0 0 0 91.1 20.7Z" transform="translate(0, 0.003137304214760661)" stroke-width="1" stroke-linejoin="round"></path></g> <!----> <!----> <!----> <!----> <!----> <!----> <!----></g></g> <g data-gra="path-slogan" fill-rule="evenodd" class="tp-slogan" fill="#ffffff" transform="translate(5,63.312416076660156)"><rect fill="none" x="0" height="0" y="7.114835262298584" width="13.617080688476562"></rect> <rect fill="none" height="0" y="7.114835262298584" width="13.617080688476562" x="152.7170867919922"></rect> <g transform="translate(16.617080688476562,0)"><g transform="scale(1)"><path d="M 123.7 11.5 L 121.1 10.9 L 121.3 9.9 L 125 10.7 L 124 15.2 L 123.3 15.1 L 123.2 14 A 3.6 3.6 0 0 1 120.2 14.6 A 3.7 3.7 0 0 1 117.8 13.1 A 4.5 4.5 0 0 1 117.2 9.4 A 7.2 7.2 0 0 1 117.2 9.3 Q 118.4 5.2 122.1 5.8 A 3.4 3.4 0 0 1 125.1 9.3 L 124 9.1 A 2.4 2.4 0 0 0 121.9 6.8 A 3 3 0 0 0 118.4 9.6 A 2.9 2.9 0 0 0 120.4 13.7 A 2.9 2.9 0 0 0 122.3 13.5 A 2.6 2.6 0 0 0 123.6 11.6 A 4.8 4.8 0 0 0 123.7 11.5 Z M 99 7.1 L 96.4 6.8 L 96.5 5.8 L 100.3 6.3 L 99.7 10.8 L 99 10.7 L 98.8 9.6 A 3.6 3.6 0 0 1 95.9 10.5 A 3.7 3.7 0 0 1 93.4 9.3 A 4.5 4.5 0 0 1 92.4 5.7 A 7.2 7.2 0 0 1 92.4 5.6 Q 93.2 1.4 97 1.6 A 3.4 3.4 0 0 1 100.3 4.8 L 99.2 4.7 A 2.4 2.4 0 0 0 96.8 2.6 A 3 3 0 0 0 93.6 5.8 A 2.9 2.9 0 0 0 96.1 9.6 A 2.9 2.9 0 0 0 97.9 9.3 A 2.6 2.6 0 0 0 99 7.3 A 4.8 4.8 0 0 0 99 7.1 Z M 84.6 0.7 L 88.3 8 L 88.9 1 L 90 1.1 L 89.3 9.7 L 88 9.6 L 84.2 2.3 L 84.2 2.3 L 83.6 9.2 L 82.5 9.2 L 83.2 0.6 L 84.6 0.7 Z M 109.9 3.7 L 112.9 11.3 L 114.1 4.4 L 115.2 4.6 L 113.7 13.1 L 112.4 12.8 L 109.4 5.3 L 109.3 5.3 L 108.1 12.1 L 107 11.9 L 108.5 3.4 L 109.9 3.7 Z M 10.2 13.9 L 15.2 12.8 L 15.5 13.9 L 9.3 15.2 L 7.4 6.8 L 13.5 5.5 L 13.8 6.5 L 8.8 7.5 L 9.4 10.1 L 14 9.1 L 14.2 10.2 L 9.6 11.2 L 10.2 13.9 Z M 28.2 10.5 L 33.3 9.8 L 33.4 10.8 L 27.2 11.7 L 25.9 3.2 L 32.1 2.4 L 32.2 3.3 L 27.2 4.1 L 27.6 6.7 L 32.3 6 L 32.4 7 L 27.8 7.7 L 28.2 10.5 Z M 64.8 3.6 L 69.3 3.6 L 69.3 0.1 L 70.5 0.1 L 70.5 8.7 L 69.3 8.7 L 69.3 4.7 L 64.8 4.7 L 64.8 8.7 L 63.6 8.7 L 63.6 0.1 L 64.8 0.1 L 64.8 3.6 Z M 60.8 2.7 L 59.7 2.7 A 2.2 2.2 0 0 0 57.2 1 A 3 3 0 0 0 54.5 4.6 A 2.9 2.9 0 0 0 57.5 8 Q 59.5 7.9 59.9 5.6 L 61 5.5 Q 60.6 8.8 57.3 9 A 3.8 3.8 0 0 1 53.3 4.7 A 4 4 0 0 1 57.2 0 A 3.2 3.2 0 0 1 60.8 2.7 Z M 39.8 6.4 L 37 6.7 L 37.4 10.4 L 36.2 10.5 L 35.3 1.9 L 39.2 1.5 A 2.3 2.3 0 0 1 42.3 3.5 A 2.2 2.2 0 0 1 41.3 5.7 A 1.5 1.5 0 0 1 42.5 7.2 L 42.8 8.7 A 1.6 1.6 0 0 0 42.8 8.9 A 0.7 0.7 0 0 0 43.3 9.5 L 43.3 9.7 L 41.9 9.9 A 12.8 12.8 0 0 1 41.5 7.7 A 2.9 2.9 0 0 0 41.5 7.7 A 1.3 1.3 0 0 0 39.8 6.4 Z M 17.2 4.8 L 20.9 11.5 L 22 3.9 L 23.3 3.7 L 21.7 12.7 L 20.5 12.9 L 15.9 5 L 17.2 4.8 Z M 79.1 9 L 78.3 6.5 L 74.9 6.3 L 73.9 8.8 L 72.7 8.7 L 76.3 0.3 L 77.6 0.3 L 80.3 9 L 79.1 9 Z M 104 2.8 L 105.2 3 L 104 11.4 L 102.8 11.3 L 104 2.8 Z M 5.9 12.5 L 6.1 13.3 L 0.2 14.8 L 0 13.9 L 5.9 12.5 Z M 133.1 13.9 L 132.9 14.8 L 127.1 13.3 L 127.3 12.5 L 133.1 13.9 Z M 51.1 5.7 L 51.2 6.5 L 45.1 7 L 45.1 6.1 L 51.1 5.7 Z M 39.4 2.4 L 36.5 2.8 L 36.9 5.7 L 39.6 5.4 A 1.4 1.4 0 0 0 41.1 3.7 A 1.3 1.3 0 0 0 39.4 2.4 Z M 76.8 1.6 L 75.3 5.3 L 77.9 5.4 L 76.8 1.6 L 76.8 1.6 Z"></path></g></g></g></g><defs v-gra="od"></defs></svg>