<svg data-v-6805eed4="" version="1.0" xmlns="http://www.w3.org/2000/svg" xmlns:xlink="http://www.w3.org/1999/xlink" width="100%" height="100%" viewBox="0 0 340.000000 250.000000" preserveAspectRatio="xMidYMid meet" color-interpolation-filters="sRGB" style="margin: auto;"> <rect data-v-6805eed4="" x="0" y="0" width="100%" height="100%" fill="#fff" fill-opacity="1" class="background"></rect> <rect data-v-6805eed4="" x="0" y="0" width="100%" height="100%" fill="url(#watermark)" fill-opacity="1" class="watermarklayer"></rect> <g data-v-6805eed4="" fill="#f15a22" class="icon-text-wrapper icon-svg-group iconsvg" transform="translate(96.7300033569336,63.49904251098633)"><g class="iconsvg-imagesvg" transform="translate(43.269996643066406,0)"><g><rect fill="#f15a22" fill-opacity="0" stroke-width="2" x="0" y="0" width="60.00000000000001" height="65.54941333275067" class="image-rect"></rect> <svg x="0" y="0" width="60.00000000000001" height="65.54941333275067" filtersec="colorsb5031237891" class="image-svg-svg primary" style="overflow: visible;"><svg viewBox="3.593994140625 5.12396240234375 239.5 261.650146484375" xmlns="http://www.w3.org/2000/svg"><g transform="translate(-749.706 -541.701)"><linearGradient id="a47d93dba-109e-442d-9b0c-76c95a26503c" gradientUnits="userSpaceOnUse" x1="873.081" y1="808.509" x2="873.081" y2="546.869"><stop offset="0" stop-color="#f15a22"></stop><stop offset="1" stop-color="#faa61a"></stop></linearGradient><path class="st39" d="M873.1 614.9c-34.7 0-62.8 28.1-62.8 62.8 0 34.7 28.1 62.8 62.8 62.8 34.7 0 62.8-28.1 62.8-62.8 0-34.7-28.1-62.8-62.8-62.8zm0 94.2c-17.3 0-31.4-14.1-31.4-31.4 0-17.3 14.1-31.4 31.4-31.4 17.3 0 31.4 14.1 31.4 31.4 0 17.3-14.1 31.4-31.4 31.4zm119.7-75.4c0-13.8-9.8-30.8-21.8-37.7l-76.2-44c-12-6.9-31.6-6.9-43.5 0l-76.2 44c-12 6.9-21.8 23.9-21.8 37.7v87.9c0 13.8 9.8 30.8 21.8 37.7l76.2 44c12 6.9 31.6 6.9 43.5 0l76.2-44c12-6.9 21.8-23.9 21.8-37.7v-87.9zM873.1 771.9c-52 0-94.2-42.2-94.2-94.2s42.2-94.2 94.2-94.2 94.2 42.2 94.2 94.2-42.2 94.2-94.2 94.2z" fill="url(#a47d93dba-109e-442d-9b0c-76c95a26503c)"></path></g></svg></svg> <!----></g></g> <g transform="translate(0,72.5494155883789)"><g data-gra="path-name" fill-rule="" class="tp-name iconsvg-namesvg" transform="translate(0,0)"><g transform="scale(1)"><g><path d="M34.85-31.11L34.85-31.11 34.85-25.93Q30.52-25.47 23.69-25.09L23.69-25.09 22.19-25.05 22.19-15.6 35.99-15.6 35.99-9.95 22.19-9.95 22.19 4.39 15.89 4.39 15.89-9.95 2.79-9.95 1.36-15.58 1.41-15.6 15.89-15.6 15.89-24.85Q15.86-24.85 15.86-24.83L15.86-24.83Q13.43-24.81 12.22-24.81L12.22-24.81 10.94-24.81Q6.97-24.81 2.77-24.98L2.77-24.98 2.77-30.04Q6.86-29.88 10.59-29.88L10.59-29.88Q22.9-29.88 34.85-31.11ZM51.13-31.09L51.13-31.09 58.14-31.09Q58.18-31.03 58.58-30.12L58.58-30.12Q58.84-29.4 59.04-28.76L59.04-28.76 73.21-28.76 73.21-24.21 63.37-24.21 63.37-13.84Q63.37-13.8 63.33-13.8L63.33-13.8 57.06-13.8 57.06-24.21 54.29-24.21 54.29-13.8 48.03-13.8Q47.99-13.8 47.99-13.84L47.99-13.84 47.99-24.21 40.28-24.21Q39.18-27.75 38.85-28.76L38.85-28.76 52.05-28.76Q51.61-30.21 51.13-31.09ZM41.18-22.83L41.18-22.83 47.07-22.83 47.07-22.81Q46.25-21.09 45.26-15.8L45.26-15.8Q45.07-14.68 45.04-14.3L45.04-14.3 39.09-14.3Q39.33-16.19 39.9-18.68L39.9-18.68Q40.52-21.2 41.09-22.74L41.09-22.74Q41.15-22.83 41.18-22.83ZM64.45-22.83L64.45-22.83 70.33-22.83Q70.6-22.5 71.28-20.04L71.28-20.04Q71.87-17.71 72.33-15.16L72.33-15.16Q72.42-14.37 72.42-14.3L72.42-14.3 66.49-14.3Q66.27-16.06 65.68-18.74L65.68-18.74Q64.97-21.69 64.45-22.83ZM40.28-8.26L38.85-12.81 72.51-12.81Q72.51-6.59 65.57-2.11L65.57-2.11Q64.05-1.19 63.98-1.19L63.98-1.19 63.98-1.16Q68.4-0.55 72.86-0.55L72.86-0.55 72.86 4.39 72.58 4.39Q63.22 4.39 55.55 2.13L55.55 2.13Q52.62 3.01 47.79 3.76L47.79 3.76Q43.13 4.39 39.09 4.39L39.09 4.39 38.87 4.39 38.87-0.55Q41.53-0.55 46.65-1.38L46.65-1.38Q46.74-1.43 47.29-1.52L47.29-1.52 47.29-1.54Q45.94-2.31 44.38-3.56L44.38-3.56Q43.53-4.17 41.59-6.13L41.59-6.13 40.78-7.08 40.78-7.1 48.78-7.1Q50.05-6 51.35-5.21L51.35-5.21Q53.02-4.22 54.73-3.54L54.73-3.54Q54.82-3.49 54.89-3.49L54.89-3.49Q58.18-4.61 60.64-5.95L60.64-5.95 61.81-6.66Q62.86-7.34 63.87-8.26L63.87-8.26 40.28-8.26ZM76.03-30.74L76.03-30.74 110.74-30.74 110.74-25.11 87.74-25.11 87.74-20.63 108.92-20.63Q108.96-20.63 108.96-20.59L108.96-20.59 108.96 4.39 96.79 4.39Q95.52-0.62 95.36-1.23L95.36-1.23 102.28-1.23 102.28-14.99 87.74-14.99 87.74-13.89Q87.74-4.75 83.87 0.48L83.87 0.48Q82.57 2.09 81.43 2.81L81.43 2.81Q79.1 4.39 76.33 4.39L76.33 4.39 76.18 4.39 76.18-1.54Q76.22-1.58 76.73-1.8L76.73-1.8Q78.66-2.81 79.94-6L79.94-6Q81.06-9.05 81.06-13.54L81.06-13.54 81.06-25.11 77.48-25.11Q77.43-25.11 77.19-26.15L77.19-26.15Q77.17-26.17 76.03-30.74ZM118.48-31.07L118.48-31.07 125.13-31.07Q125.13-26.5 123.07-22.52L123.07-22.52 123.07 4.39 116.41 4.39 116.41-16.44 116.39-16.44Q114.96-15.95 113.6-15.95L113.6-15.95 113.55-15.95 113.55-21.6Q114.1-21.64 115.05-22.46L115.05-22.46Q116.15-23.58 116.74-24.72L116.74-24.72Q118.48-27.97 118.48-31.07ZM132.65-17.49L132.65-30.74 138.96-30.74 138.96-20.72 138.98-20.72Q143.04-22.65 147.9-24.39L147.9-24.39 147.9-18.04Q145.02-17.09 141.77-15.67L141.77-15.67Q139.2-14.48 138.96-14.33L138.96-14.33 138.96-1.67 147.9-1.67 147.9 3.96 132.65 3.96 132.65-11.1Q129.42-9.34 125.13-6.59L125.13-6.59 125.11-6.59 125.11-12.9Q125.38-13.1 127.44-14.44L127.44-14.44 129.59-15.73Q130.56-16.35 132.65-17.49L132.65-17.49Z" transform="translate(-1.3600000143051147, 31.110000610351562)"></path></g> <!----> <!----> <!----> <!----> <!----> <!----> <!----></g></g> <g data-gra="path-slogan" fill-rule="" class="tp-slogan iconsvg-slogansvg" fill="#f15a22" transform="translate(5,41.5)"><rect x="0" height="1" y="3.9750003814697266" width="14.2449951171875"></rect> <rect height="1" y="3.9750003814697266" width="14.2449951171875" x="122.29499816894531"></rect> <g transform="translate(17.2449951171875,0)"><g transform="scale(1)"><path d="M2.20-1.03L7.36-1.03L7.36 0L1.03 0L1.03-8.58L7.27-8.58L7.27-7.59L2.20-7.59L2.20-4.92L6.89-4.92L6.89-3.89L2.20-3.89L2.20-1.03ZM9.52-8.58L11.95-1.27L14.44-8.58L15.75-8.58L12.61 0L11.34 0L8.20-8.58L9.52-8.58ZM18.14-1.03L23.30-1.03L23.30 0L16.97 0L16.97-8.58L23.20-8.58L23.20-7.59L18.14-7.59L18.14-4.92L22.83-4.92L22.83-3.89L18.14-3.89L18.14-1.03ZM28.92-3.70L26.11-3.70L26.11 0L24.94 0L24.94-8.58L28.92-8.58Q31.78-8.58 31.78-6.28L31.78-6.28Q31.78-4.88 30.56-4.22L30.56-4.22Q31.59-3.94 31.59-2.58L31.59-2.58L31.69-1.03Q31.64-0.38 32.11-0.19L32.11-0.19L32.11 0L30.66 0Q30.52-0.61 30.47-2.16L30.47-2.16Q30.52-3.70 28.92-3.70L28.92-3.70ZM29.02-7.64L26.11-7.64L26.11-4.69L28.83-4.69Q30.56-4.69 30.56-6.19L30.56-6.19Q30.56-7.64 29.02-7.64L29.02-7.64ZM39.05-3.47L39.05-2.58L33-2.58L33-3.47L39.05-3.47ZM47.58-6.05L47.58-6.05L46.45-6.05Q46.03-7.78 44.06-7.83L44.06-7.83Q41.34-7.69 41.25-4.36L41.25-4.36Q41.25-0.80 44.11-0.80L44.11-0.80Q46.08-0.84 46.55-3.19L46.55-3.19L47.67-3.19Q47.16 0.05 43.88 0.14L43.88 0.14Q40.13 0 40.03-4.31L40.03-4.31Q40.22-8.63 44.06-8.81L44.06-8.81Q47.11-8.72 47.58-6.05ZM50.20-5.06L54.70-5.06L54.70-8.58L55.88-8.58L55.88 0L54.70 0L54.70-3.98L50.20-3.98L50.20 0L49.03 0L49.03-8.58L50.20-8.58L50.20-5.06ZM63.33 0L62.48-2.48L59.02-2.48L58.13 0L56.95 0L60.19-8.58L61.50-8.58L64.59 0L63.33 0ZM60.75-7.31L59.39-3.52L62.06-3.52L60.80-7.31L60.75-7.31ZM67.03-8.58L71.34-1.64L71.34-8.58L72.47-8.58L72.47 0L71.16 0L66.80-6.94L66.75-6.94L66.75 0L65.63 0L65.63-8.58L67.03-8.58ZM80.67-3.61L78.05-3.61L78.05-4.59L81.80-4.59L81.80 0L81.05 0L80.77-1.08Q79.78 0.09 77.95 0.14L77.95 0.14Q76.22 0.14 75.28-0.75L75.28-0.75Q73.88-2.06 73.92-4.36L73.92-4.36Q74.25-8.63 78-8.81L78-8.81Q81.19-8.63 81.66-6L81.66-6L80.53-6Q80.06-7.78 77.95-7.83L77.95-7.83Q75.28-7.64 75.14-4.31L75.14-4.31Q75.14-0.75 78-0.75L78-0.75Q79.03-0.75 79.78-1.31L79.78-1.31Q80.72-2.06 80.67-3.61L80.67-3.61ZM83.77-8.58L84.94-8.58L84.94 0L83.77 0L83.77-8.58ZM88.31-8.58L92.63-1.64L92.63-8.58L93.75-8.58L93.75 0L92.44 0L88.08-6.94L88.03-6.94L88.03 0L86.91 0L86.91-8.58L88.31-8.58ZM101.95-3.61L99.33-3.61L99.33-4.59L103.08-4.59L103.08 0L102.33 0L102.05-1.08Q101.06 0.09 99.23 0.14L99.23 0.14Q97.50 0.14 96.56-0.75L96.56-0.75Q95.16-2.06 95.20-4.36L95.20-4.36Q95.53-8.63 99.28-8.81L99.28-8.81Q102.47-8.63 102.94-6L102.94-6L101.81-6Q101.34-7.78 99.23-7.83L99.23-7.83Q96.56-7.64 96.42-4.31L96.42-4.31Q96.42-0.75 99.28-0.75L99.28-0.75Q100.31-0.75 101.06-1.31L101.06-1.31Q102-2.06 101.95-3.61L101.95-3.61Z" transform="translate(-1.03125, 8.8125)"></path></g></g></g></g></g><defs v-gra="od"></defs></svg>