<svg data-v-6805eed4="" version="1.0" xmlns="http://www.w3.org/2000/svg" xmlns:xlink="http://www.w3.org/1999/xlink" width="100%" height="100%" viewBox="0 0 340.000000 250.000000" preserveAspectRatio="xMidYMid meet" color-interpolation-filters="sRGB" style="margin: auto;"> <rect data-v-6805eed4="" x="0" y="0" width="100%" height="100%" fill="#ffffff" fill-opacity="1" class="background"></rect> <rect data-v-6805eed4="" x="0" y="0" width="100%" height="100%" fill="url(#watermark)" fill-opacity="1" class="watermarklayer"></rect> <g data-v-6805eed4="" fill="#FB0001" class="j-b-g-c iconbgsvg" mask="url(#b569fb62-2dbc-41a1-a232-0c8a1d1a37e2)" transform="translate(98.25,53.25)"><g data-d="container" transform="translate(0,0)"><g><rect fill="#FB0001" fill-opacity="0" stroke-width="2" x="0" y="0" width="143.5" height="143.5" class="image-rect"></rect> <svg filter="url(#colors3065881347)" x="0" y="0" width="143.5" height="143.5" filtersec="colorsf3197974439" class="image-svg-container primary" style="overflow: visible;"><svg xmlns="http://www.w3.org/2000/svg" viewBox="0 0 249 249" fill-rule="evenodd" clip-rule="evenodd" shape-rendering="geometricPrecision" text-rendering="geometricPrecision" image-rendering="optimizeQuality" style="overflow: visible;"><g transform="scale(1, 1) skewX(0)"><path class="fil0" d="M125 0c68 0 124 56 124 125 0 68-56 124-124 124C56 249 0 193 0 125 0 56 56 0 125 0z" fill="#000000"></path></g></svg></svg> <defs><filter id="colors3065881347"><feColorMatrix type="matrix" values="0 0 0 0 0.98046875  0 0 0 0 0  0 0 0 0 0.00390625  0 0 0 1 0" class="icon-fecolormatrix"></feColorMatrix></filter> <filter id="colorsf3197974439"><feColorMatrix type="matrix" values="0 0 0 0 0.99609375  0 0 0 0 0.99609375  0 0 0 0 0.99609375  0 0 0 1 0" class="icon-fecolormatrix"></feColorMatrix></filter> <filter id="colorsb8832516659"><feColorMatrix type="matrix" values="0 0 0 0 0  0 0 0 0 0  0 0 0 0 0  0 0 0 1 0" class="icon-fecolormatrix"></feColorMatrix></filter></defs></g></g> <g data-d="icon-text" hollow-target="textRect" transform="translate(6.716224670410156,6.6346435546875)"><!----> <g data-d="text"><g data-gra="path-name" fill-rule="" class="tp-name iconsvg-namesvg"><g transform="scale(0.9999999999999999)"><g><path d="M36.25-51.75L36.25-51.75Q42.71-52.6 47.4-49.24L47.4-49.24Q50.76-46.41 49.9-43.51L49.9-43.51Q49.04-41.66 46.93-41.07L46.93-41.07Q44.63-40.34 39.95-39.35L39.95-39.35Q38.36-38.89 39.68-36.91L39.68-36.91Q40.87-34.28 41.07-31.9L41.07-31.9Q41.2-30.32 43.18-30.59L43.18-30.59Q51.61-32.17 58.27-28.41L58.27-28.41Q65.26-24.19 64.14-18.65L64.14-18.65Q62.56-14.17 57.35-15.49L57.35-15.49Q54.71-15.82 52.08-16.41L52.08-16.41Q48.05-17.93 42.98-16.74L42.98-16.74Q40.94-15.82 40.94-14.24L40.94-14.24Q41.07-8.7 41.46-2.97L41.46-2.97Q41.86 1.91 40.94 5.8L40.94 5.8Q40.67 7.91 38.1 9.23L38.1 9.23Q35.79 10.48 31.97 9.69L31.97 9.69Q29.86 9.29 28.34 6.86L28.34 6.86Q27.09 4.09 27.42 1.05L27.42 1.05Q27.82-5.34 27.95-11.73L27.95-11.73Q27.95-13.32 26.17-12.92L26.17-12.92Q23.8-12.39 21.36-11.67L21.36-11.67Q18.85-10.81 16.08-11.01L16.08-11.01Q9.82-11.4 5.73-16.48L5.73-16.48Q4.15-18.59 4.42-21.75L4.42-21.75Q5.54-31.84 20.1-41.07L20.1-41.07Q23.4-43.04 26.7-44.49L26.7-44.49Q28.02-45.48 28.74-46.8L28.74-46.8Q29.27-48.98 31.71-50.36L31.71-50.36Q33.02-51.22 36.25-51.75ZM23.86-33.62L23.86-33.62 22.61-33.02Q16.08-29.53 11.4-24.98L11.4-24.98Q9.29-22.08 12.26-20.76L12.26-20.76Q14.63-19.71 18.65-21.82L18.65-21.82Q22.28-23.8 26.76-25.77L26.76-25.77Q28.34-26.5 28.54-28.48L28.54-28.48Q28.87-31.51 27.69-32.96L27.69-32.96Q25.84-34.48 23.86-33.62ZM99.21-51.35L99.21-51.35Q102.44-52.34 104.68-51.15L104.68-51.15Q105.73-50.3 106.66-50.63L106.66-50.63Q108.7-51.15 110.21-50.56L110.21-50.56Q113.25-49.7 113.18-47.53L113.18-47.53Q113.64-46.54 111.8-45.22L111.8-45.22Q110.87-44.76 109.23-45.02L109.23-45.02Q107.12-44.63 103.95-43.18L103.95-43.18Q99.54-40.47 94.86-40.41L94.86-40.41Q93.08-41.53 89.78-37.11L89.78-37.11Q88.2-35.53 89.65-34.01L89.65-34.01Q91.3-32.43 93.74-27.88L93.74-27.88Q94.92-26.43 95.45-27.36L95.45-27.36Q96.44-28.41 96.04-28.74L96.04-28.74Q95.19-29.07 95.19-29.86L95.19-29.86Q95.45-30.19 97.49-31.11L97.49-31.11 102.77-33.95Q108.83-37.38 111.8-33.88L111.8-33.88Q112.85-30.72 109.16-30.92L109.16-30.92Q106.79-31.38 103.89-29.73L103.89-29.73 99.73-28.41Q98.35-26.76 98.02-24.79L98.02-24.79Q97.76-22.87 99.87-24.85L99.87-24.85Q105.34-29.53 108.96-28.67L108.96-28.67Q114.24-26.24 112.46-22.41L112.46-22.41Q111.73-20.7 112.13-20.24L112.13-20.24Q112.79-19.45 111.67-18.06L111.67-18.06Q111.14-17.6 109.36-17.93L109.36-17.93Q106.39-18.26 101.84-17.2L101.84-17.2Q99.21-16.15 96.57-18L96.57-18Q94.53-19.71 93.93-19.51L93.93-19.51Q91.1-19.18 87.54-23.33L87.54-23.33Q86.88-24.92 85.43-23.86L85.43-23.86Q83.91-22.81 85.76-20.96L85.76-20.96Q88.33-19.38 89.38-18.06L89.38-18.06Q89.65-17.53 90.31-17.93L90.31-17.93Q94.59-18.65 94.92-13.32L94.92-13.32Q94.92-11.73 97.03-12.59L97.03-12.59Q104.15-15.1 116.02-15.95L116.02-15.95Q117.73-15.95 116.28-18.06L116.28-18.06Q114.04-21.49 114.17-23.53L114.17-23.53Q114.37-24.19 114.83-24.19L114.83-24.19Q115.75-23.86 116.41-22.68L116.41-22.68Q116.94-21.62 118.59-20.04L118.59-20.04Q119.9-19.25 121.22-18L121.22-18Q121.88-17.4 122.01-16.81L122.01-16.81Q121.95-16.15 123.93-15.82L123.93-15.82Q128.8-14.5 128.67-11.01L128.67-11.01Q128.47-9.43 127.55-8.9L127.55-8.9 124.98-9.23Q123.4-9.29 122.61-7.19L122.61-7.19Q121.95-6.13 120.76-5.08L120.76-5.08Q118.78-3.56 120.63-2.83L120.63-2.83Q126.43-1.05 131.18 1.25L131.18 1.25Q135.33 3.63 134.21 7.38L134.21 7.38Q132.82 11.27 130.12 11.21L130.12 11.21Q126.04 11.54 119.58 7.91L119.58 7.91Q114.57 5.6 109.56 3.56L109.56 3.56Q108.11 2.97 106 4.35L106 4.35Q100.79 7.71 95.84 9.82L95.84 9.82Q93.8 10.88 89.98 10.68L89.98 10.68Q84.11 10.22 78.77 7.38L78.77 7.38Q76.99 5.67 77.06 5.47L77.06 5.47Q77.85 4.81 80.75 4.48L80.75 4.48Q87.21 3.76 96.11-0.07L96.11-0.07Q97.89-0.73 95.58-1.58L95.58-1.58 91.49-2.77Q89.91-3.16 88.13-1.78L88.13-1.78Q84.7 0.73 82.86 1.12L82.86 1.12Q79.96 2.44 77.92-0.73L77.92-0.73Q75.28-6.06 81.15-8.96L81.15-8.96Q85.83-10.94 88.46-14.44L88.46-14.44Q89.12-16.02 88-16.02L88-16.02Q86.29-15.69 84.38-17.73L84.38-17.73Q82.07-19.91 81.61-22.02L81.61-22.02Q81.61-22.35 79.63-23.2L79.63-23.2Q78.31-24.06 77.06-25.44L77.06-25.44Q74.29-28.28 78.38-32.63L78.38-32.63Q80.35-34.61 78.18-35.07L78.18-35.07Q73.7-36.78 77.12-41.33L77.12-41.33Q78.31-42.65 77.92-43.64L77.92-43.64Q75.61-44.89 76.46-46.87L76.46-46.87Q78.24-48.98 80.55-47.59L80.55-47.59Q82.13-46.74 82.53-46.8L82.53-46.8Q82.99-46.93 84.7-48.98L84.7-48.98Q88.66-51.09 92.94-46.08L92.94-46.08Q94.13-44.03 95.84-44.82L95.84-44.82Q97.69-46.01 97.1-46.6L97.1-46.6Q94.72-49.5 99.21-51.35ZM123.53-50.43L123.53-50.43Q127.95-51.55 131.9-45.02L131.9-45.02Q132.36-43.9 132.56-42.78L132.56-42.78Q132.5-41.13 129.59-38.69L129.59-38.69Q127.95-37.24 129.86-35.6L129.86-35.6Q131.7-33.62 134.14-28.74L134.14-28.74Q132.82-25.91 130.25-28.61L130.25-28.61Q128.74-30.26 127.95-28.81L127.95-28.81Q125.64-26.96 128.61-25.84L128.61-25.84Q130.12-24.72 131.9-24.13L131.9-24.13Q133.81-22.87 133.88-22.35L133.88-22.35Q133.88-20.76 132.03-20.43L132.03-20.43Q128.28-20.96 126.17-24.39L126.17-24.39Q125.64-25.64 124.52-24.52L124.52-24.52Q123.27-23.27 124.72-22.21L124.72-22.21 126.23-21.16Q129-19.58 127.88-18.19L127.88-18.19Q125.71-15.95 122.74-19.45L122.74-19.45 121.68-20.76Q120.56-22.68 118.52-23.4L118.52-23.4Q110.28-27.49 115.22-32.56L115.22-32.56Q116.87-34.08 114.9-34.87L114.9-34.87Q113.38-35.2 112.39-37.38L112.39-37.38Q112.32-38.03 110.48-37.9L110.48-37.9Q107.91-38.1 104.61-36.72L104.61-36.72Q98.94-33.68 95.45-34.87L95.45-34.87Q94.33-35.66 94.53-36.06L94.53-36.06Q94.72-36.32 95.65-36.72L95.65-36.72Q101.45-40.14 106.19-41.99L106.19-41.99Q107.91-42.71 110.15-42.12L110.15-42.12Q111.67-41.66 112.59-40.61L112.59-40.61Q113.12-39.55 114.37-41.33L114.37-41.33Q115.62-42.78 115.82-43.64L115.82-43.64Q115.75-44.43 114.1-45.94L114.1-45.94Q113.64-47.46 115.29-48.45L115.29-48.45Q116.94-48.98 120.17-47.33L120.17-47.33Q120.76-47.33 122.21-49.44L122.21-49.44Q122.87-50.16 123.53-50.43ZM126.04-46.6L126.04-46.6Q125.05-46.8 124.65-45.35L124.65-45.35Q123.46-42.45 121.95-39.55L121.95-39.55Q121.88-38.76 123.73-39.95L123.73-39.95Q125.71-41.79 127.68-43.18L127.68-43.18Q129.33-45.55 126.04-46.6ZM88.07-45.62L88.07-45.62Q87.08-45.55 86.68-44.43L86.68-44.43Q85.89-42.91 85.3-41.4L85.3-41.4Q84.9-39.81 85.23-39.68L85.23-39.68Q85.56-39.81 87.6-41.59L87.6-41.59Q89.91-43.51 89.91-44.56L89.91-44.56Q89.52-45.75 88.07-45.62ZM87.28-33.35L87.28-33.35Q86.95-34.54 84.9-32.83L84.9-32.83Q83.32-31.71 81.74-30.39L81.74-30.39Q79.63-28.74 79.63-28.48L79.63-28.48Q80.02-27.55 81.01-27.69L81.01-27.69Q82.6-28.08 86.02-31.05L86.02-31.05Q87.54-32.37 87.28-33.35ZM124.85-34.54L124.85-34.54Q123.86-34.21 121.62-32.5L121.62-32.5Q120.3-31.77 118.98-30.85L118.98-30.85Q116.41-29.66 117.6-28.21L117.6-28.21Q119.84-26.43 122.34-29.86L122.34-29.86 124.52-32.5Q125.31-33.22 125.38-34.15L125.38-34.15Q125.18-34.54 124.85-34.54ZM91.03-26.3L91.03-26.3Q89.58-28.02 88.79-27.03L88.79-27.03Q87.8-25.84 89.78-24.19L89.78-24.19Q91.03-23.33 92.29-22.74L92.29-22.74Q94.53-21.23 94.2-23.86L94.2-23.86Q94.06-24.79 93.67-24.65L93.67-24.65Q92.81-24.46 92.02-25.31L92.02-25.31Q91.49-25.71 91.03-26.3ZM108.5-25.05L108.5-25.05Q107.31-26.24 105.6-24.79L105.6-24.79Q102.7-22.94 99.54-22.87L99.54-22.87Q97.89-22.87 98.35-21.49L98.35-21.49Q99.21-20.1 101.18-20.57L101.18-20.57Q103.95-21.62 105.73-21.82L105.73-21.82Q106.33-21.88 107.05-22.54L107.05-22.54Q109.36-23.53 108.5-25.05ZM76.27-22.15L76.27-22.15Q77.32-23.27 78.64-20.63L78.64-20.63Q80.35-18 83.39-15.56L83.39-15.56Q84.51-14.5 84.11-13.91L84.11-13.91Q82.66-11.21 79.43-14.24L79.43-14.24Q76.14-17.93 76.27-22.15ZM109.95-9.49L109.95-9.49 96.83-8.96 95.65-9.03Q94.06-9.16 93.6-8.31L93.6-8.31Q93.01-7.25 94.59-7.25L94.59-7.25Q100.59-7.19 107.18-6L107.18-6Q107.71-5.93 109.82-7.25L109.82-7.25Q111.47-7.84 111.86-8.96L111.86-8.96Q111.93-9.62 109.95-9.49Z" transform="translate(-4.380594730377197, 51.92161560058594)"></path></g> <!----> <!----> <!----> <!----> <!----> <!----> <g data-gra="path-name-1" fill="#FB0001" transform="translate(0,66.15911483764648)"><g transform="scale(1.01558)"><path d="M41.53-51.15L41.53-51.15Q44.56-52.08 47.92-50.3L47.92-50.3Q48.91-49.77 49.9-48.45L49.9-48.45Q50.89-47.07 53.06-46.8L53.06-46.8Q59.33-45.88 63.22-42.58L63.22-42.58Q65.65-40.08 64.2-37.31L64.2-37.31Q63.54-35.79 61.83-35.79L61.83-35.79Q58.8-36.19 56.56-37.57L56.56-37.57Q55.04-38.3 53.53-38.56L53.53-38.56Q51.94-38.76 51.75-38.36L51.75-38.36Q51.61-37.9 51.61-37.05L51.61-37.05Q51.61-35.99 53.66-35.93L53.66-35.93Q58.8-35.6 61.04-30.26L61.04-30.26Q61.83-28.02 62.16-24.98L62.16-24.98Q62.75-19.64 61.24-16.35L61.24-16.35Q60.25-15.03 58.01-14.5L58.01-14.5Q56.62-14.24 53.46-14.7L53.46-14.7Q48.05-14.83 38.96-14.11L38.96-14.11Q37.31-13.91 37.31-13.18L37.31-13.18Q37.31-12.33 39.35-12.52L39.35-12.52Q45.75-13.32 50.36-13.05L50.36-13.05Q56.16-12.72 60.91-9.95L60.91-9.95Q63.48-8.31 63.94-6.33L63.94-6.33Q65.46-0.46 64.34 6.79L64.34 6.79Q64.01 9.95 60.51 10.81L60.51 10.81Q55.31 11.73 50.43 8.17L50.43 8.17Q48.85 6.92 48.52 8.04L48.52 8.04Q47.72 10.15 45.42 10.68L45.42 10.68Q41.26 10.02 41.13 5.47L41.13 5.47Q41.13 3.82 39.09 3.89L39.09 3.89Q34.01 4.15 28.74 5.54L28.74 5.54Q22.15 7.12 18.19 5.27L18.19 5.27Q15.89 4.28 16.48 1.98L16.48 1.98Q16.74 1.65 18.72 1.05L18.72 1.05Q20.9 0 23.27-0.59L23.27-0.59Q25.11-1.19 25.05-2.97L25.05-2.97 25.05-3.96Q24.98-5.6 22.94-5.41L22.94-5.41Q20.04-5.14 15.82-4.02L15.82-4.02Q14.17-3.56 14.17-1.98L14.17-1.98Q14.24 0.46 14.5 3.1L14.5 3.1Q15.1 6.53 14.11 9.23L14.11 9.23Q13.45 11.47 10.74 11.6L10.74 11.6Q8.64 11.8 6.79 9.95L6.79 9.95Q3.16 5.6 5.41 1.32L5.41 1.32Q6.2-1.85 6-3.96L6-3.96Q6.13-5.47 4.75-6.39L4.75-6.39Q3.76-6.72 3.1-8.04L3.1-8.04Q2.18-10.94 5.21-11.67L5.21-11.67Q7.71-12.79 11.34-9.43L11.34-9.43Q12.72-7.78 14.7-8.44L14.7-8.44Q18.98-9.62 23.27-10.55L23.27-10.55Q24.98-10.94 24.98-11.67L24.98-11.67Q24.98-12.59 22.87-12.26L22.87-12.26Q16.22-10.74 13.32-11.54L13.32-11.54Q9.23-13.45 8.83-18.19L8.83-18.19Q8.9-22.35 9.23-26.5L9.23-26.5Q9.29-27.16 8.31-28.54L8.31-28.54Q7.84-30.52 9.82-31.38L9.82-31.38Q12.06-32.04 13.84-31.11L13.84-31.11Q15.49-30.06 16.81-30.45L16.81-30.45Q18.46-30.92 17.8-31.84L17.8-31.84Q17.2-32.83 17.07-33.35L17.07-33.35Q16.94-33.95 14.83-33.68L14.83-33.68Q12-33.55 9.69-34.94L9.69-34.94Q6.39-37.18 5.8-39.35L5.8-39.35Q5.54-40.01 6.33-40.67L6.33-40.67Q7.71-41.07 9.16-40.41L9.16-40.41Q12.46-40.34 15.82-41.59L15.82-41.59Q19.64-41.73 16.41-45.29L16.41-45.29Q15.62-46.74 17.01-48.12L17.01-48.12Q20.96-50.69 24.46-45.81L24.46-45.81Q25.51-44.23 27.49-44.56L27.49-44.56Q33.22-45.68 40.34-46.74L40.34-46.74Q40.41-47.07 39.95-47.66L39.95-47.66Q39.02-49.97 41.53-51.15ZM38.5-38.69L38.5-38.69Q34.15-38.3 28.48-37.11L28.48-37.11Q26.7-36.72 26.63-35L26.63-35Q26.24-32.96 26.43-32.89L26.43-32.89Q33.02-34.34 38.1-35L38.1-35Q39.68-35.13 40.14-37.05L40.14-37.05Q40.67-38.96 38.5-38.69ZM48.25-31.51L48.25-31.51Q44.56-31.51 38.76-30.72L38.76-30.72Q37.18-30.39 37.24-28.87L37.24-28.87Q37.31-27.22 39.42-27.55L39.42-27.55 44.17-28.02Q47.2-28.28 49.77-28.21L49.77-28.21Q51.35-27.95 51.48-28.21L51.48-28.21Q52.08-31.71 48.25-31.51ZM23.66-28.28L23.66-28.28 22.87-28.08Q20.04-27.22 18-27.16L18-27.16Q16.35-27.16 16.28-25.05L16.28-25.05Q16.22-22.87 18.33-23.53L18.33-23.53Q20.96-24.46 23.93-25.05L23.93-25.05Q25.58-25.38 25.71-27.42L25.71-27.42 25.77-28.28Q25.64-28.61 23.66-28.28ZM49.77-24.26L49.77-24.26Q44.43-24.32 39.16-23.6L39.16-23.6Q37.44-23.4 37.38-21.56L37.38-21.56Q37.38-19.71 39.42-19.91L39.42-19.91Q44.82-20.37 49.24-20.3L49.24-20.3Q50.89-20.3 51.02-22.21L51.02-22.21Q51.35-24.26 49.77-24.26ZM24.92-21.36L24.92-21.36Q21.03-20.43 17.93-20.3L17.93-20.3Q16.28-20.24 16.28-18.85L16.28-18.85Q16.35-17.47 16.61-17.27L16.61-17.27Q18.65-16.35 23.33-17.8L23.33-17.8Q25.11-18.13 25.18-19.64L25.18-19.64Q25.25-21.23 24.92-21.36ZM50.23-8.24L50.23-8.24Q48.19-8.31 46.08-8.11L46.08-8.11Q44.49-7.58 45.75-5.6L45.75-5.6Q48.19-1.45 48.85 2.24L48.85 2.24Q49.11 4.15 49.44 4.35L49.44 4.35Q50.76 5.14 52.08 4.61L52.08 4.61Q51.94-1.85 52.34-5.41L52.34-5.41Q53.13-7.65 50.23-8.24ZM40.21-4.61L40.21-4.61Q39.75-6.92 38.56-6.92L38.56-6.92Q37.11-6.79 37.05-4.94L37.05-4.94Q37.05-3.1 38.89-2.9L38.89-2.9Q40.74-2.37 40.21-4.61ZM80.22-49.44L80.22-49.44Q83.45-52.21 87.74-50.23L87.74-50.23Q94.26-46.67 93.14-39.68L93.14-39.68Q92.09-33.35 88.13-26.5L88.13-26.5Q87.87-25.38 87.8-24.06L87.8-24.06Q87.6-16.81 88.2-5.34L88.2-5.34Q88.53 1.32 87.87 6.92L87.87 6.92Q87.21 9.03 85.3 9.56L85.3 9.56Q81.74 10.15 79.56 8.37L79.56 8.37Q79.1 7.78 78.71 6.13L78.71 6.13 78.71-8.37Q78.64-10.02 77.06-10.55L77.06-10.55Q71.98-12.52 71.46-17.14L71.46-17.14Q71.32-18.98 73.37-22.41L73.37-22.41Q77.26-29.53 80.68-38.23L80.68-38.23Q82.13-41.33 82-42.52L82-42.52Q81.87-42.91 81.28-43.37L81.28-43.37Q77.85-46.41 80.22-49.44ZM97.76-50.49L97.76-50.49Q104.68-51.94 109.03-44.43L109.03-44.43Q110.81-40.41 109.16-31.84L109.16-31.84 108.57-28.81Q108.3-27.22 110.28-28.34L110.28-28.34Q116.74-33.22 120.1-38.03L120.1-38.03Q122.28-41.2 119.71-43.31L119.71-43.31Q118.98-44.3 119.64-45.75L119.64-45.75Q120.5-47.72 121.88-47.86L121.88-47.86Q124.52-48.32 126.89-44.76L126.89-44.76Q130.39-39.16 129.4-33.82L129.4-33.82Q128.74-29 124.45-25.18L124.45-25.18Q122.94-24.06 123.73-22.35L123.73-22.35Q126.96-15.36 129.92-7.05L129.92-7.05Q132.43-0.66 128.87 4.68L128.87 4.68Q127.09 7.19 123.73 7.91L123.73 7.91Q114.63 10.15 107.97 7.12L107.97 7.12Q101.38 3.49 99.54-2.44L99.54-2.44Q96.04-14.96 98.42-33.55L98.42-33.55Q99.8-39.68 99.34-43.11L99.34-43.11Q99.21-43.97 97.76-44.82L97.76-44.82Q94.92-46.14 95.78-48.71L95.78-48.71Q96.64-50.16 97.76-50.49ZM122.08-21.36L122.08-21.36Q121.88-23.07 120.23-21.95L120.23-21.95Q115.16-18.92 109.03-20.37L109.03-20.37Q107.31-20.76 107.25-19.12L107.25-19.12Q106.72-12.85 108.63-6.86L108.63-6.86Q109.42-4.42 111.6-3.56L111.6-3.56Q115.16-2.37 119.51-4.61L119.51-4.61Q122.15-6.33 122.21-8.31L122.21-8.31Q122.81-14.04 122.08-21.36Z" transform="translate(-2.885721445083618, 51.469154357910156)"></path></g></g></g></g> <!----></g></g></g><defs><filter id="1ef521ae-bb8a-4316-85cd-2f0204c774cd">
          <feColorMatrix type="matrix" values="0 0 0 0 0  0 0 0 0 0  0 0 0 0 0  0 0 0 1 0"></feColorMatrix>
          </filter><filter id="91e10015-7099-4e1a-a968-c13484f37834">
          <feColorMatrix type="matrix" values="0 0 0 0 0.99609375  0 0 0 0 0.99609375  0 0 0 0 0.99609375  0 0 0 1 0"></feColorMatrix>
          </filter></defs><mask id="b569fb62-2dbc-41a1-a232-0c8a1d1a37e2"><g data-v-6805eed4="" fill="#FB0001" class="j-b-g-c iconbgsvg"><g data-d="container" transform="translate(0,0)"><g><rect fill="#FB0001" fill-opacity="0" stroke-width="2" x="0" y="0" width="143.5" height="143.5" class="image-rect" stroke="#000"></rect> <svg filter="url(#91e10015-7099-4e1a-a968-c13484f37834)" x="0" y="0" width="143.5" height="143.5" filtersec="colorsf3197974439" class="image-svg-container primary" style="overflow: visible;"><svg xmlns="http://www.w3.org/2000/svg" viewBox="0 0 249 249" fill-rule="evenodd" clip-rule="evenodd" shape-rendering="geometricPrecision" text-rendering="geometricPrecision" image-rendering="optimizeQuality" style="overflow: visible;"><g transform="scale(1, 1) skewX(0)"><path class="fil0" d="M125 0c68 0 124 56 124 125 0 68-56 124-124 124C56 249 0 193 0 125 0 56 56 0 125 0z" fill="#000000"></path></g></svg></svg> <defs><filter id="colors3065881347"><feColorMatrix type="matrix" values="0 0 0 0 0.98046875  0 0 0 0 0  0 0 0 0 0.00390625  0 0 0 1 0" class="icon-fecolormatrix"></feColorMatrix></filter> <filter id="colorsf3197974439"><feColorMatrix type="matrix" values="0 0 0 0 0.99609375  0 0 0 0 0.99609375  0 0 0 0 0.99609375  0 0 0 1 0" class="icon-fecolormatrix"></feColorMatrix></filter> <filter id="colorsb8832516659"><feColorMatrix type="matrix" values="0 0 0 0 0  0 0 0 0 0  0 0 0 0 0  0 0 0 1 0" class="icon-fecolormatrix"></feColorMatrix></filter></defs></g></g> <g data-d="icon-text" hollow-target="textRect" transform="translate(6.716224670410156,6.6346435546875)" filter="url(#1ef521ae-bb8a-4316-85cd-2f0204c774cd)"><!----> <g data-d="text"><g data-gra="path-name" fill-rule="" class="tp-name iconsvg-namesvg"><g transform="scale(0.9999999999999999)"><g><path d="M36.25-51.75L36.25-51.75Q42.71-52.6 47.4-49.24L47.4-49.24Q50.76-46.41 49.9-43.51L49.9-43.51Q49.04-41.66 46.93-41.07L46.93-41.07Q44.63-40.34 39.95-39.35L39.95-39.35Q38.36-38.89 39.68-36.91L39.68-36.91Q40.87-34.28 41.07-31.9L41.07-31.9Q41.2-30.32 43.18-30.59L43.18-30.59Q51.61-32.17 58.27-28.41L58.27-28.41Q65.26-24.19 64.14-18.65L64.14-18.65Q62.56-14.17 57.35-15.49L57.35-15.49Q54.71-15.82 52.08-16.41L52.08-16.41Q48.05-17.93 42.98-16.74L42.98-16.74Q40.94-15.82 40.94-14.24L40.94-14.24Q41.07-8.7 41.46-2.97L41.46-2.97Q41.86 1.91 40.94 5.8L40.94 5.8Q40.67 7.91 38.1 9.23L38.1 9.23Q35.79 10.48 31.97 9.69L31.97 9.69Q29.86 9.29 28.34 6.86L28.34 6.86Q27.09 4.09 27.42 1.05L27.42 1.05Q27.82-5.34 27.95-11.73L27.95-11.73Q27.95-13.32 26.17-12.92L26.17-12.92Q23.8-12.39 21.36-11.67L21.36-11.67Q18.85-10.81 16.08-11.01L16.08-11.01Q9.82-11.4 5.73-16.48L5.73-16.48Q4.15-18.59 4.42-21.75L4.42-21.75Q5.54-31.84 20.1-41.07L20.1-41.07Q23.4-43.04 26.7-44.49L26.7-44.49Q28.02-45.48 28.74-46.8L28.74-46.8Q29.27-48.98 31.71-50.36L31.71-50.36Q33.02-51.22 36.25-51.75ZM23.86-33.62L23.86-33.62 22.61-33.02Q16.08-29.53 11.4-24.98L11.4-24.98Q9.29-22.08 12.26-20.76L12.26-20.76Q14.63-19.71 18.65-21.82L18.65-21.82Q22.28-23.8 26.76-25.77L26.76-25.77Q28.34-26.5 28.54-28.48L28.54-28.48Q28.87-31.51 27.69-32.96L27.69-32.96Q25.84-34.48 23.86-33.62ZM99.21-51.35L99.21-51.35Q102.44-52.34 104.68-51.15L104.68-51.15Q105.73-50.3 106.66-50.63L106.66-50.63Q108.7-51.15 110.21-50.56L110.21-50.56Q113.25-49.7 113.18-47.53L113.18-47.53Q113.64-46.54 111.8-45.22L111.8-45.22Q110.87-44.76 109.23-45.02L109.23-45.02Q107.12-44.63 103.95-43.18L103.95-43.18Q99.54-40.47 94.86-40.41L94.86-40.41Q93.08-41.53 89.78-37.11L89.78-37.11Q88.2-35.53 89.65-34.01L89.65-34.01Q91.3-32.43 93.74-27.88L93.74-27.88Q94.92-26.43 95.45-27.36L95.45-27.36Q96.44-28.41 96.04-28.74L96.04-28.74Q95.19-29.07 95.19-29.86L95.19-29.86Q95.45-30.19 97.49-31.11L97.49-31.11 102.77-33.95Q108.83-37.38 111.8-33.88L111.8-33.88Q112.85-30.72 109.16-30.92L109.16-30.92Q106.79-31.38 103.89-29.73L103.89-29.73 99.73-28.41Q98.35-26.76 98.02-24.79L98.02-24.79Q97.76-22.87 99.87-24.85L99.87-24.85Q105.34-29.53 108.96-28.67L108.96-28.67Q114.24-26.24 112.46-22.41L112.46-22.41Q111.73-20.7 112.13-20.24L112.13-20.24Q112.79-19.45 111.67-18.06L111.67-18.06Q111.14-17.6 109.36-17.93L109.36-17.93Q106.39-18.26 101.84-17.2L101.84-17.2Q99.21-16.15 96.57-18L96.57-18Q94.53-19.71 93.93-19.51L93.93-19.51Q91.1-19.18 87.54-23.33L87.54-23.33Q86.88-24.92 85.43-23.86L85.43-23.86Q83.91-22.81 85.76-20.96L85.76-20.96Q88.33-19.38 89.38-18.06L89.38-18.06Q89.65-17.53 90.31-17.93L90.31-17.93Q94.59-18.65 94.92-13.32L94.92-13.32Q94.92-11.73 97.03-12.59L97.03-12.59Q104.15-15.1 116.02-15.95L116.02-15.95Q117.73-15.95 116.28-18.06L116.28-18.06Q114.04-21.49 114.17-23.53L114.17-23.53Q114.37-24.19 114.83-24.19L114.83-24.19Q115.75-23.86 116.41-22.68L116.41-22.68Q116.94-21.62 118.59-20.04L118.59-20.04Q119.9-19.25 121.22-18L121.22-18Q121.88-17.4 122.01-16.81L122.01-16.81Q121.95-16.15 123.93-15.82L123.93-15.82Q128.8-14.5 128.67-11.01L128.67-11.01Q128.47-9.43 127.55-8.9L127.55-8.9 124.98-9.23Q123.4-9.29 122.61-7.19L122.61-7.19Q121.95-6.13 120.76-5.08L120.76-5.08Q118.78-3.56 120.63-2.83L120.63-2.83Q126.43-1.05 131.18 1.25L131.18 1.25Q135.33 3.63 134.21 7.38L134.21 7.38Q132.82 11.27 130.12 11.21L130.12 11.21Q126.04 11.54 119.58 7.91L119.58 7.91Q114.57 5.6 109.56 3.56L109.56 3.56Q108.11 2.97 106 4.35L106 4.35Q100.79 7.71 95.84 9.82L95.84 9.82Q93.8 10.88 89.98 10.68L89.98 10.68Q84.11 10.22 78.77 7.38L78.77 7.38Q76.99 5.67 77.06 5.47L77.06 5.47Q77.85 4.81 80.75 4.48L80.75 4.48Q87.21 3.76 96.11-0.07L96.11-0.07Q97.89-0.73 95.58-1.58L95.58-1.58 91.49-2.77Q89.91-3.16 88.13-1.78L88.13-1.78Q84.7 0.73 82.86 1.12L82.86 1.12Q79.96 2.44 77.92-0.73L77.92-0.73Q75.28-6.06 81.15-8.96L81.15-8.96Q85.83-10.94 88.46-14.44L88.46-14.44Q89.12-16.02 88-16.02L88-16.02Q86.29-15.69 84.38-17.73L84.38-17.73Q82.07-19.91 81.61-22.02L81.61-22.02Q81.61-22.35 79.63-23.2L79.63-23.2Q78.31-24.06 77.06-25.44L77.06-25.44Q74.29-28.28 78.38-32.63L78.38-32.63Q80.35-34.61 78.18-35.07L78.18-35.07Q73.7-36.78 77.12-41.33L77.12-41.33Q78.31-42.65 77.92-43.64L77.92-43.64Q75.61-44.89 76.46-46.87L76.46-46.87Q78.24-48.98 80.55-47.59L80.55-47.59Q82.13-46.74 82.53-46.8L82.53-46.8Q82.99-46.93 84.7-48.98L84.7-48.98Q88.66-51.09 92.94-46.08L92.94-46.08Q94.13-44.03 95.84-44.82L95.84-44.82Q97.69-46.01 97.1-46.6L97.1-46.6Q94.72-49.5 99.21-51.35ZM123.53-50.43L123.53-50.43Q127.95-51.55 131.9-45.02L131.9-45.02Q132.36-43.9 132.56-42.78L132.56-42.78Q132.5-41.13 129.59-38.69L129.59-38.69Q127.95-37.24 129.86-35.6L129.86-35.6Q131.7-33.62 134.14-28.74L134.14-28.74Q132.82-25.91 130.25-28.61L130.25-28.61Q128.74-30.26 127.95-28.81L127.95-28.81Q125.64-26.96 128.61-25.84L128.61-25.84Q130.12-24.72 131.9-24.13L131.9-24.13Q133.81-22.87 133.88-22.35L133.88-22.35Q133.88-20.76 132.03-20.43L132.03-20.43Q128.28-20.96 126.17-24.39L126.17-24.39Q125.64-25.64 124.52-24.52L124.52-24.52Q123.27-23.27 124.72-22.21L124.72-22.21 126.23-21.16Q129-19.58 127.88-18.19L127.88-18.19Q125.71-15.95 122.74-19.45L122.74-19.45 121.68-20.76Q120.56-22.68 118.52-23.4L118.52-23.4Q110.28-27.49 115.22-32.56L115.22-32.56Q116.87-34.08 114.9-34.87L114.9-34.87Q113.38-35.2 112.39-37.38L112.39-37.38Q112.32-38.03 110.48-37.9L110.48-37.9Q107.91-38.1 104.61-36.72L104.61-36.72Q98.94-33.68 95.45-34.87L95.45-34.87Q94.33-35.66 94.53-36.06L94.53-36.06Q94.72-36.32 95.65-36.72L95.65-36.72Q101.45-40.14 106.19-41.99L106.19-41.99Q107.91-42.71 110.15-42.12L110.15-42.12Q111.67-41.66 112.59-40.61L112.59-40.61Q113.12-39.55 114.37-41.33L114.37-41.33Q115.62-42.78 115.82-43.64L115.82-43.64Q115.75-44.43 114.1-45.94L114.1-45.94Q113.64-47.46 115.29-48.45L115.29-48.45Q116.94-48.98 120.17-47.33L120.17-47.33Q120.76-47.33 122.21-49.44L122.21-49.44Q122.87-50.16 123.53-50.43ZM126.04-46.6L126.04-46.6Q125.05-46.8 124.65-45.35L124.65-45.35Q123.46-42.45 121.95-39.55L121.95-39.55Q121.88-38.76 123.73-39.95L123.73-39.95Q125.71-41.79 127.68-43.18L127.68-43.18Q129.33-45.55 126.04-46.6ZM88.07-45.62L88.07-45.62Q87.08-45.55 86.68-44.43L86.68-44.43Q85.89-42.91 85.3-41.4L85.3-41.4Q84.9-39.81 85.23-39.68L85.23-39.68Q85.56-39.81 87.6-41.59L87.6-41.59Q89.91-43.51 89.91-44.56L89.91-44.56Q89.52-45.75 88.07-45.62ZM87.28-33.35L87.28-33.35Q86.95-34.54 84.9-32.83L84.9-32.83Q83.32-31.71 81.74-30.39L81.74-30.39Q79.63-28.74 79.63-28.48L79.63-28.48Q80.02-27.55 81.01-27.69L81.01-27.69Q82.6-28.08 86.02-31.05L86.02-31.05Q87.54-32.37 87.28-33.35ZM124.85-34.54L124.85-34.54Q123.86-34.21 121.62-32.5L121.62-32.5Q120.3-31.77 118.98-30.85L118.98-30.85Q116.41-29.66 117.6-28.21L117.6-28.21Q119.84-26.43 122.34-29.86L122.34-29.86 124.52-32.5Q125.31-33.22 125.38-34.15L125.38-34.15Q125.18-34.54 124.85-34.54ZM91.03-26.3L91.03-26.3Q89.58-28.02 88.79-27.03L88.79-27.03Q87.8-25.84 89.78-24.19L89.78-24.19Q91.03-23.33 92.29-22.74L92.29-22.74Q94.53-21.23 94.2-23.86L94.2-23.86Q94.06-24.79 93.67-24.65L93.67-24.65Q92.81-24.46 92.02-25.31L92.02-25.31Q91.49-25.71 91.03-26.3ZM108.5-25.05L108.5-25.05Q107.31-26.24 105.6-24.79L105.6-24.79Q102.7-22.94 99.54-22.87L99.54-22.87Q97.89-22.87 98.35-21.49L98.35-21.49Q99.21-20.1 101.18-20.57L101.18-20.57Q103.95-21.62 105.73-21.82L105.73-21.82Q106.33-21.88 107.05-22.54L107.05-22.54Q109.36-23.53 108.5-25.05ZM76.27-22.15L76.27-22.15Q77.32-23.27 78.64-20.63L78.64-20.63Q80.35-18 83.39-15.56L83.39-15.56Q84.51-14.5 84.11-13.91L84.11-13.91Q82.66-11.21 79.43-14.24L79.43-14.24Q76.14-17.93 76.27-22.15ZM109.95-9.49L109.95-9.49 96.83-8.96 95.65-9.03Q94.06-9.16 93.6-8.31L93.6-8.31Q93.01-7.25 94.59-7.25L94.59-7.25Q100.59-7.19 107.18-6L107.18-6Q107.71-5.93 109.82-7.25L109.82-7.25Q111.47-7.84 111.86-8.96L111.86-8.96Q111.93-9.62 109.95-9.49Z" transform="translate(-4.380594730377197, 51.92161560058594)"></path></g> <!----> <!----> <!----> <!----> <!----> <!----> <g data-gra="path-name-1" fill="#FB0001" transform="translate(0,66.15911483764648)"><g transform="scale(1.01558)"><path d="M41.53-51.15L41.53-51.15Q44.56-52.08 47.92-50.3L47.92-50.3Q48.91-49.77 49.9-48.45L49.9-48.45Q50.89-47.07 53.06-46.8L53.06-46.8Q59.33-45.88 63.22-42.58L63.22-42.58Q65.65-40.08 64.2-37.31L64.2-37.31Q63.54-35.79 61.83-35.79L61.83-35.79Q58.8-36.19 56.56-37.57L56.56-37.57Q55.04-38.3 53.53-38.56L53.53-38.56Q51.94-38.76 51.75-38.36L51.75-38.36Q51.61-37.9 51.61-37.05L51.61-37.05Q51.61-35.99 53.66-35.93L53.66-35.93Q58.8-35.6 61.04-30.26L61.04-30.26Q61.83-28.02 62.16-24.98L62.16-24.98Q62.75-19.64 61.24-16.35L61.24-16.35Q60.25-15.03 58.01-14.5L58.01-14.5Q56.62-14.24 53.46-14.7L53.46-14.7Q48.05-14.83 38.96-14.11L38.96-14.11Q37.31-13.91 37.31-13.18L37.31-13.18Q37.31-12.33 39.35-12.52L39.35-12.52Q45.75-13.32 50.36-13.05L50.36-13.05Q56.16-12.72 60.91-9.95L60.91-9.95Q63.48-8.31 63.94-6.33L63.94-6.33Q65.46-0.46 64.34 6.79L64.34 6.79Q64.01 9.95 60.51 10.81L60.51 10.81Q55.31 11.73 50.43 8.17L50.43 8.17Q48.85 6.92 48.52 8.04L48.52 8.04Q47.72 10.15 45.42 10.68L45.42 10.68Q41.26 10.02 41.13 5.47L41.13 5.47Q41.13 3.82 39.09 3.89L39.09 3.89Q34.01 4.15 28.74 5.54L28.74 5.54Q22.15 7.12 18.19 5.27L18.19 5.27Q15.89 4.28 16.48 1.98L16.48 1.98Q16.74 1.65 18.72 1.05L18.72 1.05Q20.9 0 23.27-0.59L23.27-0.59Q25.11-1.19 25.05-2.97L25.05-2.97 25.05-3.96Q24.98-5.6 22.94-5.41L22.94-5.41Q20.04-5.14 15.82-4.02L15.82-4.02Q14.17-3.56 14.17-1.98L14.17-1.98Q14.24 0.46 14.5 3.1L14.5 3.1Q15.1 6.53 14.11 9.23L14.11 9.23Q13.45 11.47 10.74 11.6L10.74 11.6Q8.64 11.8 6.79 9.95L6.79 9.95Q3.16 5.6 5.41 1.32L5.41 1.32Q6.2-1.85 6-3.96L6-3.96Q6.13-5.47 4.75-6.39L4.75-6.39Q3.76-6.72 3.1-8.04L3.1-8.04Q2.18-10.94 5.21-11.67L5.21-11.67Q7.71-12.79 11.34-9.43L11.34-9.43Q12.72-7.78 14.7-8.44L14.7-8.44Q18.98-9.62 23.27-10.55L23.27-10.55Q24.98-10.94 24.98-11.67L24.98-11.67Q24.98-12.59 22.87-12.26L22.87-12.26Q16.22-10.74 13.32-11.54L13.32-11.54Q9.23-13.45 8.83-18.19L8.83-18.19Q8.9-22.35 9.23-26.5L9.23-26.5Q9.29-27.16 8.31-28.54L8.31-28.54Q7.84-30.52 9.82-31.38L9.82-31.38Q12.06-32.04 13.84-31.11L13.84-31.11Q15.49-30.06 16.81-30.45L16.81-30.45Q18.46-30.92 17.8-31.84L17.8-31.84Q17.2-32.83 17.07-33.35L17.07-33.35Q16.94-33.95 14.83-33.68L14.83-33.68Q12-33.55 9.69-34.94L9.69-34.94Q6.39-37.18 5.8-39.35L5.8-39.35Q5.54-40.01 6.33-40.67L6.33-40.67Q7.71-41.07 9.16-40.41L9.16-40.41Q12.46-40.34 15.82-41.59L15.82-41.59Q19.64-41.73 16.41-45.29L16.41-45.29Q15.62-46.74 17.01-48.12L17.01-48.12Q20.96-50.69 24.46-45.81L24.46-45.81Q25.51-44.23 27.49-44.56L27.49-44.56Q33.22-45.68 40.34-46.74L40.34-46.74Q40.41-47.07 39.95-47.66L39.95-47.66Q39.02-49.97 41.53-51.15ZM38.5-38.69L38.5-38.69Q34.15-38.3 28.48-37.11L28.48-37.11Q26.7-36.72 26.63-35L26.63-35Q26.24-32.96 26.43-32.89L26.43-32.89Q33.02-34.34 38.1-35L38.1-35Q39.68-35.13 40.14-37.05L40.14-37.05Q40.67-38.96 38.5-38.69ZM48.25-31.51L48.25-31.51Q44.56-31.51 38.76-30.72L38.76-30.72Q37.18-30.39 37.24-28.87L37.24-28.87Q37.31-27.22 39.42-27.55L39.42-27.55 44.17-28.02Q47.2-28.28 49.77-28.21L49.77-28.21Q51.35-27.95 51.48-28.21L51.48-28.21Q52.08-31.71 48.25-31.51ZM23.66-28.28L23.66-28.28 22.87-28.08Q20.04-27.22 18-27.16L18-27.16Q16.35-27.16 16.28-25.05L16.28-25.05Q16.22-22.87 18.33-23.53L18.33-23.53Q20.96-24.46 23.93-25.05L23.93-25.05Q25.58-25.38 25.71-27.42L25.71-27.42 25.77-28.28Q25.64-28.61 23.66-28.28ZM49.77-24.26L49.77-24.26Q44.43-24.32 39.16-23.6L39.16-23.6Q37.44-23.4 37.38-21.56L37.38-21.56Q37.38-19.71 39.42-19.91L39.42-19.91Q44.82-20.37 49.24-20.3L49.24-20.3Q50.89-20.3 51.02-22.21L51.02-22.21Q51.35-24.26 49.77-24.26ZM24.92-21.36L24.92-21.36Q21.03-20.43 17.93-20.3L17.93-20.3Q16.28-20.24 16.28-18.85L16.28-18.85Q16.35-17.47 16.61-17.27L16.61-17.27Q18.65-16.35 23.33-17.8L23.33-17.8Q25.11-18.13 25.18-19.64L25.18-19.64Q25.25-21.23 24.92-21.36ZM50.23-8.24L50.23-8.24Q48.19-8.31 46.08-8.11L46.08-8.11Q44.49-7.58 45.75-5.6L45.75-5.6Q48.19-1.45 48.85 2.24L48.85 2.24Q49.11 4.15 49.44 4.35L49.44 4.35Q50.76 5.14 52.08 4.61L52.08 4.61Q51.94-1.85 52.34-5.41L52.34-5.41Q53.13-7.65 50.23-8.24ZM40.21-4.61L40.21-4.61Q39.75-6.92 38.56-6.92L38.56-6.92Q37.11-6.79 37.05-4.94L37.05-4.94Q37.05-3.1 38.89-2.9L38.89-2.9Q40.74-2.37 40.21-4.61ZM80.22-49.44L80.22-49.44Q83.45-52.21 87.74-50.23L87.74-50.23Q94.26-46.67 93.14-39.68L93.14-39.68Q92.09-33.35 88.13-26.5L88.13-26.5Q87.87-25.38 87.8-24.06L87.8-24.06Q87.6-16.81 88.2-5.34L88.2-5.34Q88.53 1.32 87.87 6.92L87.87 6.92Q87.21 9.03 85.3 9.56L85.3 9.56Q81.74 10.15 79.56 8.37L79.56 8.37Q79.1 7.78 78.71 6.13L78.71 6.13 78.71-8.37Q78.64-10.02 77.06-10.55L77.06-10.55Q71.98-12.52 71.46-17.14L71.46-17.14Q71.32-18.98 73.37-22.41L73.37-22.41Q77.26-29.53 80.68-38.23L80.68-38.23Q82.13-41.33 82-42.52L82-42.52Q81.87-42.91 81.28-43.37L81.28-43.37Q77.85-46.41 80.22-49.44ZM97.76-50.49L97.76-50.49Q104.68-51.94 109.03-44.43L109.03-44.43Q110.81-40.41 109.16-31.84L109.16-31.84 108.57-28.81Q108.3-27.22 110.28-28.34L110.28-28.34Q116.74-33.22 120.1-38.03L120.1-38.03Q122.28-41.2 119.71-43.31L119.71-43.31Q118.98-44.3 119.64-45.75L119.64-45.75Q120.5-47.72 121.88-47.86L121.88-47.86Q124.52-48.32 126.89-44.76L126.89-44.76Q130.39-39.16 129.4-33.82L129.4-33.82Q128.74-29 124.45-25.18L124.45-25.18Q122.94-24.06 123.73-22.35L123.73-22.35Q126.96-15.36 129.92-7.05L129.92-7.05Q132.43-0.66 128.87 4.68L128.87 4.68Q127.09 7.19 123.73 7.91L123.73 7.91Q114.63 10.15 107.97 7.12L107.97 7.12Q101.38 3.49 99.54-2.44L99.54-2.44Q96.04-14.96 98.42-33.55L98.42-33.55Q99.8-39.68 99.34-43.11L99.34-43.11Q99.21-43.97 97.76-44.82L97.76-44.82Q94.92-46.14 95.78-48.71L95.78-48.71Q96.64-50.16 97.76-50.49ZM122.08-21.36L122.08-21.36Q121.88-23.07 120.23-21.95L120.23-21.95Q115.16-18.92 109.03-20.37L109.03-20.37Q107.31-20.76 107.25-19.12L107.25-19.12Q106.72-12.85 108.63-6.86L108.63-6.86Q109.42-4.42 111.6-3.56L111.6-3.56Q115.16-2.37 119.51-4.61L119.51-4.61Q122.15-6.33 122.21-8.31L122.21-8.31Q122.81-14.04 122.08-21.36Z" transform="translate(-2.885721445083618, 51.469154357910156)"></path></g></g></g></g> <!----></g></g></g></mask><defs v-gra="od"></defs></svg>